<?xml version="1.0" encoding="utf-8"?>
<!-- Generator: Adobe Illustrator 21.0.0, SVG Export Plug-In . SVG Version: 6.00 Build 0)  -->
<svg version="1.1" id="레이어_1" xmlns="http://www.w3.org/2000/svg" xmlns:xlink="http://www.w3.org/1999/xlink" x="0px"
	 y="0px" viewBox="0 0 39.9 37" style="enable-background:new 0 0 39.9 37;" xml:space="preserve">
<style type="text/css">
	.st0{clip-path:url(#SVGID_2_);fill:#C5C5C5;}
</style>
<g>
	<defs>
		<rect id="SVGID_1_" y="0" width="39.9" height="37"/>
	</defs>
	<clipPath id="SVGID_2_">
		<use xlink:href="#SVGID_1_"  style="overflow:visible;"/>
	</clipPath>
	<path class="st0" d="M8.7,13.6c-0.8,0-1.4,0.6-1.4,1.4c0,0.8,0.6,1.4,1.4,1.4c0.8,0,1.4-0.6,1.4-1.4C10.1,14.3,9.5,13.6,8.7,13.6"
		/>
	<path class="st0" d="M22.3,13.5c-0.8,0-1.5,0.7-1.5,1.5s0.7,1.5,1.5,1.5s1.5-0.7,1.5-1.5S23.1,13.5,22.3,13.5"/>
	<path class="st0" d="M34.5,0H5.3C2.4,0,0,2.4,0,5.3v17.3C0,25.6,2.4,28,5.3,28h10.3l3.5,8.3c0,0,0.2,0.7,0.8,0.7
		c0.6,0,0.8-0.7,0.8-0.7l3.5-8.3h10.2c2.9,0,5.3-2.4,5.3-5.3V5.3C39.9,2.4,37.5,0,34.5,0 M12.5,15.3c0,3.2-3.3,3.3-3.3,3.3
		c-1.3,0-2-0.8-2-0.8v0.6H4.9V8.5c0,0,0,0,0,0v0c0.1,0,2.4,0,2.4,0v3.8c0.6-1,2.2-0.9,2.2-0.9C13,11.6,12.5,15.3,12.5,15.3
		 M16.7,11.6v6.7h-2.3v-6.7c0-0.9-1.1-1.2-1.1-1.2V8.1C17,8.3,16.7,11.6,16.7,11.6 M22.3,18.6c-2.2,0-3.9-1.6-3.9-3.6
		s1.8-3.6,3.9-3.6c2.2,0,3.9,1.6,3.9,3.6S24.4,18.6,22.3,18.6 M35,18.6c0,0,0,3.4-3.4,3.4h-1.1v-2.2h0.6c0,0,1.5,0.1,1.4-2.1
		c0,0-0.3,0.9-2.3,0.9c0,0-2.9-0.2-2.9-3v-1.1c0,0,0.1-2.9,3.3-3.2c0,0,1.3-0.1,2,0.9v-0.7H35V18.6z"/>
	<path class="st0" d="M31.3,13.5c-0.8,0-1.4,0.6-1.4,1.4c0,0.8,0.6,1.4,1.4,1.4c0.8,0,1.4-0.6,1.4-1.4
		C32.8,14.2,32.1,13.5,31.3,13.5"/>
</g>
</svg>
