<?xml version="1.0" encoding="utf-8"?>
<!-- Generator: Adobe Illustrator 21.0.0, SVG Export Plug-In . SVG Version: 6.00 Build 0)  -->
<svg version="1.1" id="레이어_1" xmlns="http://www.w3.org/2000/svg" xmlns:xlink="http://www.w3.org/1999/xlink" x="0px"
	 y="0px" viewBox="0 0 38.3 35.2" style="enable-background:new 0 0 38.3 35.2;" xml:space="preserve">
<style type="text/css">
	.st0{clip-path:url(#SVGID_2_);fill:#C5C5C5;}
</style>
<g>
	<defs>
		<rect id="SVGID_1_" y="0" width="38.3" height="35.2"/>
	</defs>
	<clipPath id="SVGID_2_">
		<use xlink:href="#SVGID_1_"  style="overflow:visible;"/>
	</clipPath>
	<path class="st0" d="M15.3,12.9L14,16.5h2.6L15.3,12.9C15.3,12.9,15.3,12.9,15.3,12.9"/>
	<path class="st0" d="M19.2,0C8.6,0,0,6.8,0,15.1C0,20.6,3.6,25.4,9.1,28c-0.4,1.5-1.5,5.4-1.7,6.3c-0.3,1,0.4,1,0.8,0.7
		c0.3-0.2,5.2-3.6,7.4-5c1.2,0.2,2.3,0.3,3.6,0.3c10.6,0,19.2-6.8,19.2-15.1C38.3,6.8,29.7,0,19.2,0 M9.7,19.3
		c0,0.2-0.1,0.5-0.3,0.7c-0.2,0.2-0.4,0.3-0.7,0.3H8.6c-0.2,0-0.5-0.1-0.7-0.3c-0.2-0.2-0.3-0.4-0.3-0.7v-6.7H5.8c-0.5,0-1-0.4-1-1
		c0-0.5,0.4-1,1-1h5.6c0.5,0,1,0.4,1,1c0,0.5-0.4,1-1,1H9.7V19.3z M18.9,20.2c-0.5,0.2-1-0.1-1.2-0.6l-0.5-1.4h-3.8l-0.5,1.4
		c-0.2,0.5-0.7,0.7-1.2,0.6C11.3,20,11,19.5,11.2,19l2.7-7.4c0,0,0-0.1,0.1-0.1c0.1-0.5,0.7-1,1.4-1c0.6,0,1.1,0.3,1.3,0.8
		c0,0,0,0,0,0l2.8,7.6C19.6,19.5,19.4,20,18.9,20.2 M24.9,20.2h-3.8c-0.5,0-0.9-0.4-0.9-0.9c0-0.1,0-0.1,0-0.2c0-0.1,0-0.1,0-0.2
		v-7.4c0-0.6,0.5-1,1-1s1,0.5,1,1v6.9h2.6c0.5,0,0.9,0.4,0.9,0.9C25.8,19.8,25.4,20.2,24.9,20.2 M33,20c-0.4,0.3-1,0.2-1.3-0.2
		L29,16.3l-0.6,0.6v2.3c0,0.6-0.5,1-1,1c-0.6,0-1-0.5-1-1v-7.6c0-0.6,0.5-1,1-1c0.6,0,1,0.5,1,1v2.7l3.2-3.2c0.4-0.4,0.9-0.4,1.3,0
		c0.4,0.4,0.4,0.9,0,1.3l-2.6,2.6l2.9,3.8C33.5,19.2,33.5,19.7,33,20"/>
</g>
</svg>
