<svg xmlns="http://www.w3.org/2000/svg" viewBox="0 0 165.44 33.97"><defs><style>.cls-1{fill:#005666;}.cls-2{fill:#727171;}</style></defs><g id="레이어_2" data-name="레이어 2"><g id="Layer_1" data-name="Layer 1"><path class="cls-1" d="M52.19,23.87V12.42H50.63v5.14H45.46A1.88,1.88,0,0,1,44,17a1.78,1.78,0,0,1-.54-1.39v-9h7.16v4.09h1.56V6H54.9V23.87Zm-4.44-8V8.35H46.34v7.57ZM58.82,6V6.8c0,.51,0,1.2,0,2v2.86c0,1.08,0,2.16,0,3.26V18.2c0,1.08,0,2,0,2.87s0,1.91,0,2.8H56.08V6Z"/><path class="cls-1" d="M73.09,15.15V6H76v5.68c0,1.08,0,2.16,0,3.26s0,2.2,0,3.25v5.67H73.09v-7.3a4.46,4.46,0,0,1-1.41.51,7.15,7.15,0,0,1-1.68.19H63.82a2,2,0,0,1-1.45-.5,1.72,1.72,0,0,1-.56-1.41V6.59h8.88V8.25h-.27a1.46,1.46,0,0,1-.29,0h-5.4v7.4h5.46a11.18,11.18,0,0,0,1.66-.12A4.15,4.15,0,0,0,73.09,15.15Z"/><path class="cls-1" d="M88.73,13.23l.73-.19a2,2,0,0,0,.56-.19V6h2.92V9.18h2.47a1.23,1.23,0,0,0,.44,0v1.7H92.94v4.55H90V14.22a3.11,3.11,0,0,1-.6.31,4.08,4.08,0,0,1-.77.25,6.39,6.39,0,0,1-.85.17,4.6,4.6,0,0,1-.93.08h-6a1.94,1.94,0,0,1-1.43-.56,1.67,1.67,0,0,1-.58-1.37c0-.31,0-.6,0-.89v-2.1a.5.5,0,0,1,0-.16V9.82H85.1V8H78.69V6.36H88v5H81.78v1.93h5.27a6.48,6.48,0,0,0,.89,0A5.06,5.06,0,0,0,88.73,13.23ZM81.12,22c0-.48,0-.93,0-1.39V17.21a1.06,1.06,0,0,1,0-.25v-.23H92.9v7.16H83.15a2,2,0,0,1-1.47-.5A1.88,1.88,0,0,1,81.12,22ZM84,18.39v3.88h6V18.39Z"/><path class="cls-1" d="M102.57,5.88a.34.34,0,0,0,0,.19V7.73a.89.89,0,0,0,0,.29h3.73V9.66H104a4.69,4.69,0,0,1,1.2,1.28,3.29,3.29,0,0,1,.44,1.68,3.42,3.42,0,0,1-.36,1.56,4.15,4.15,0,0,1-1,1.27,4.72,4.72,0,0,1-3.2,1.14,5,5,0,0,1-1.74-.31A4.38,4.38,0,0,1,97,14.18a3.3,3.3,0,0,1-.37-1.56,3.22,3.22,0,0,1,.46-1.68,4,4,0,0,1,1.22-1.28H96V8h3.73V5.88ZM99.23,22V18.16h2.9a1.28,1.28,0,0,0,0,.29v3.3c0,.17,0,.35,0,.56h9.21V24h-10.1a2,2,0,0,1-1.45-.52A1.85,1.85,0,0,1,99.23,22Zm1.9-11.78a1.59,1.59,0,0,0-1.22.68,2.3,2.3,0,0,0-.37.77,2.39,2.39,0,0,0-.17.95,2.72,2.72,0,0,0,.15,1,2,2,0,0,0,.37.77,1.91,1.91,0,0,0,.56.51,1.14,1.14,0,0,0,.68.21,1.61,1.61,0,0,0,1.27-.74,7.43,7.43,0,0,0,.35-.79,3,3,0,0,0,.15-.92,2.7,2.7,0,0,0-.13-.78,3.94,3.94,0,0,0-.31-.79,2.68,2.68,0,0,0-.56-.6A1.34,1.34,0,0,0,101.13,10.22Zm6.64,9.06V17.21c0-.62,0-1.33,0-2.12V8.14c0-.29,0-.58,0-.85V6.09h2.91a1.24,1.24,0,0,0,0,.31V9.68a4.35,4.35,0,0,0,0,.52h2.92v1.64h-2.92v7.44Z"/><path class="cls-1" d="M123.41,15.28h-7.07a1.93,1.93,0,0,1-1.47-.54,1.72,1.72,0,0,1-.54-1.39V6.55h2.86s0,.14,0,.39V9.16h3.3V6.55h2.92v8.73Zm-6.22-4.48v2.84h3.3V10.8ZM128,20.42a3.45,3.45,0,0,1-.42,1.64,4.86,4.86,0,0,1-1.16,1.33,6.08,6.08,0,0,1-1.68.87,6.4,6.4,0,0,1-2,.31,6.33,6.33,0,0,1-2-.31,5.34,5.34,0,0,1-1.63-.85,4.14,4.14,0,0,1-1.14-1.35,3.22,3.22,0,0,1,0-3.25,3.82,3.82,0,0,1,1.14-1.31,5.41,5.41,0,0,1,1.63-.89,6.33,6.33,0,0,1,2-.31,7.16,7.16,0,0,1,1.87.27,5.45,5.45,0,0,1,1.68.81,5.27,5.27,0,0,1,1.24,1.3A3.34,3.34,0,0,1,128,20.42Zm-2.93,0a3,3,0,0,0-.16-.93,3,3,0,0,0-.54-.81,3.46,3.46,0,0,0-.73-.54,2.4,2.4,0,0,0-.91-.2,2.15,2.15,0,0,0-.89.2,3.61,3.61,0,0,0-.75.54,3.41,3.41,0,0,0-.5.81,2.24,2.24,0,0,0-.21.93,2.43,2.43,0,0,0,.19.94,3.11,3.11,0,0,0,.5.81,5,5,0,0,0,.77.54,2.15,2.15,0,0,0,.89.2,2.59,2.59,0,0,0,.93-.2,3.84,3.84,0,0,0,.73-.54A2.63,2.63,0,0,0,125.09,20.42Zm.48-4.29V6.07h2.88V9.41h2.91v1.66h-2.91v5.06Z"/><path class="cls-1" d="M141.54,8.39h2.53c0-.2,0-.41,0-.62V6.42a2.37,2.37,0,0,0,0-.35H147V16.13h-2.93V13.87h-2.53V15.3h-7.07a2,2,0,0,1-1.45-.5,1.73,1.73,0,0,1-.57-1.41V6.55h2.91a1.3,1.3,0,0,0,0,.41V8.52c0,.23,0,.45,0,.68h3.26c0-.23,0-.45,0-.68V7a3.24,3.24,0,0,0,0-.41h2.92Zm-6.18,2.51v2.78h3.26V10.9Zm9.5,6.62a3.65,3.65,0,0,1,1.49,2.9,3.48,3.48,0,0,1-.41,1.68,4.92,4.92,0,0,1-1.14,1.31,6.63,6.63,0,0,1-1.68.85,6.45,6.45,0,0,1-2,.31,6.33,6.33,0,0,1-2-.31,5.7,5.7,0,0,1-1.66-.89,4,4,0,0,1-1.14-1.31,3.22,3.22,0,0,1-.41-1.64,3.09,3.09,0,0,1,.43-1.59,4,4,0,0,1,1.14-1.31,5.7,5.7,0,0,1,1.66-.89,6.51,6.51,0,0,1,5.75.89Zm-2.07,4.67a2.62,2.62,0,0,0,.68-1.77,2.36,2.36,0,0,0-.19-.91,3.25,3.25,0,0,0-.49-.79,3.33,3.33,0,0,0-.75-.56,2.42,2.42,0,0,0-.93-.2,2.16,2.16,0,0,0-.9.2,2.66,2.66,0,0,0-.72.54,3,3,0,0,0-.5.79,2.58,2.58,0,0,0-.19.93,2.43,2.43,0,0,0,.19.94,2.59,2.59,0,0,0,.48.81,3,3,0,0,0,.74.54,2.16,2.16,0,0,0,.9.2A2.41,2.41,0,0,0,142.79,22.19Zm-1.25-9.94h2.53V10h-2.53Z"/><path class="cls-1" d="M160.56,15.74h-4.48v2.44h-2.92V15.74h-3.95V14.22h11.35ZM154.94,6a6.33,6.33,0,0,1,1.78.25,5.32,5.32,0,0,1,1.52.72,4.42,4.42,0,0,1,1,1.16,3.32,3.32,0,0,1,0,3.12,4.3,4.3,0,0,1-1.06,1.14,4.39,4.39,0,0,1-1.52.7,6.29,6.29,0,0,1-1.76.25,5.73,5.73,0,0,1-1.72-.25,4.19,4.19,0,0,1-1.5-.72,3.34,3.34,0,0,1-1.05-1.17,2.77,2.77,0,0,1-.4-1.51,3.1,3.1,0,0,1,.44-1.64,3.8,3.8,0,0,1,1.12-1.14,5.61,5.61,0,0,1,1.51-.68A5.89,5.89,0,0,1,154.94,6Zm-2.49,16V19h2.9v3.28h10V24H154.46a2,2,0,0,1-1.45-.54A1.9,1.9,0,0,1,152.45,22Zm2.49-14.42a1.72,1.72,0,0,0-1.43.58,2.49,2.49,0,0,0-.46,1.54,2.08,2.08,0,0,0,.52,1.49,1.63,1.63,0,0,0,1.37.6,1.71,1.71,0,0,0,1.43-.62,2.32,2.32,0,0,0,.48-1.47,3,3,0,0,0-.11-.77,2.44,2.44,0,0,0-.35-.68,2.15,2.15,0,0,0-.6-.48A1.9,1.9,0,0,0,154.94,7.58Zm6.86,12.1V18.47c0-.12,0-.27,0-.43h-3.93V16.57h3.93c0-1,0-1.89,0-2.76V6.09h2.93V19.68Z"/><path class="cls-1" d="M20.69,34a17.85,17.85,0,0,0,2.43-.7,41.14,41.14,0,0,1-5.43-3.55l-.56-.43-.55.43a42,42,0,0,1-5.42,3.54,16.18,16.18,0,0,0,2.43.7c1.21-.73,2.39-1.52,3.54-2.38A41.73,41.73,0,0,0,20.69,34Z"/><path class="cls-1" d="M26.55,31.54a19.62,19.62,0,0,0,1.65-1.23A35,35,0,0,1,17.78,23l-.65-.65-.64.65A35.24,35.24,0,0,1,6.09,30.3a15.28,15.28,0,0,0,1.65,1.22,36.94,36.94,0,0,0,9.39-6.58A37.17,37.17,0,0,0,26.55,31.54Z"/><path class="cls-1" d="M21.29,9.5A31.05,31.05,0,0,0,23,3,19.85,19.85,0,0,0,34.3,16.41a18.39,18.39,0,0,0-.22-2.11,18,18,0,0,1-9.5-12.61c-.44-.22-.9-.41-1.37-.59l-.6-.21-.29-.1C22,.7,21.73.61,21.43.54a29.6,29.6,0,0,1-1.25,6.61c-.26.83-.56,1.65-.89,2.45a30.23,30.23,0,0,1-2.17,4.24c-.35.56-.72,1.11-1.1,1.65A29.76,29.76,0,0,1,2.4,26c.16.27.33.54.5.79s.36.52.54.76A31.55,31.55,0,0,0,17.12,17.05,31.53,31.53,0,0,0,30.88,27.48c.37-.5.72-1,1-1.55a29.77,29.77,0,0,1-13.7-10.45A30.65,30.65,0,0,0,20.4,11.6,25.78,25.78,0,0,0,33.53,22.32,17.16,17.16,0,0,0,34,20.54,23.85,23.85,0,0,1,21.29,9.5Z"/><path class="cls-1" d="M17.15,0h-.44c-.35,0-.71,0-1.06.06A23.34,23.34,0,0,1,14,7.16a23,23,0,0,1-1.1,2.36A23.93,23.93,0,0,1,.32,20.58a17.68,17.68,0,0,0,.46,1.77A25.73,25.73,0,0,0,13.83,11.61c.4-.65.77-1.32,1.1-2A25.08,25.08,0,0,0,17.1,3.08,23.78,23.78,0,0,0,17.48,0Z"/><path class="cls-1" d="M11,1.14q-.7.27-1.38.6A18,18,0,0,1,.22,14.32,16.37,16.37,0,0,0,0,16.44,19.87,19.87,0,0,0,11.21,3c.15-.67.28-1.35.37-2C11.38,1,11.18,1.07,11,1.14Z"/><path class="cls-2" d="M43.84,28.52a.16.16,0,0,1,0-.11s0-.07,0-.08l.68,0h.52a1.07,1.07,0,0,0,0,.25,1.43,1.43,0,0,0,.09.27c0,.1.09.2.14.3s.1.23.16.35l.35.76.06.12a1,1,0,0,1,.08.15.8.8,0,0,1,.08.16l.07.12c0-.06.08-.14.13-.23s.1-.22.17-.38l.28-.6.17-.37c0-.1.09-.2.13-.3s.07-.19.1-.29.06-.19.09-.31l.31,0h.87a.11.11,0,0,1,0,.09.17.17,0,0,1,0,.1l-.16,0a.45.45,0,0,0-.24.1c-.06.05-.08.14-.08.28v.75c0,.22,0,.42,0,.6s0,.36,0,.53,0,.33,0,.5a.93.93,0,0,0,0,.28.22.22,0,0,0,.2.12l.17,0a.18.18,0,0,1,0,.11s0,.07,0,.08H46.81s-.05,0-.05-.09a.12.12,0,0,1,0-.1l.16,0,.14,0a.14.14,0,0,0,.07-.06.21.21,0,0,0,0-.12V29.27h0q-.3.64-.6,1.32T46,31.94a.17.17,0,0,1-.11,0h-.08l-.06,0c0-.16-.13-.37-.22-.6s-.2-.48-.32-.73l-.33-.73c-.11-.24-.2-.45-.27-.62h0q0,.26,0,.45c0,.12,0,.25,0,.39v1.21a.81.81,0,0,0,0,.17.18.18,0,0,0,0,.11.12.12,0,0,0,.08.06l.12,0,.21,0a.15.15,0,0,1,0,.1.1.1,0,0,1,0,.09H43.77s0,0,0,0a.14.14,0,0,1,0-.06.13.13,0,0,1,0-.06l0,0h.09l.16,0a.2.2,0,0,0,.09-.06.22.22,0,0,0,0-.12,1,1,0,0,0,0-.2c0-.13,0-.31,0-.53s0-.46,0-.71l0-.58c0-.19,0-.37,0-.51a.39.39,0,0,0-.09-.31.54.54,0,0,0-.24-.12Z"/><path class="cls-2" d="M50.56,29.75a.37.37,0,0,0,0,.14.31.31,0,0,0,.13,0h.54l.11,0a.22.22,0,0,0,.07-.09,1,1,0,0,0,0-.16l0-.13,0,0h.11l0,0c0,.18,0,.37,0,.58s0,.4,0,.57l0,0a.08.08,0,0,1-.06,0h-.05l0,0,0-.13a1,1,0,0,0,0-.16.22.22,0,0,0-.07-.09l-.11,0h-.54a.31.31,0,0,0-.13,0,.37.37,0,0,0,0,.14V31a2.54,2.54,0,0,0,0,.31.47.47,0,0,0,.07.2l.06.06a.23.23,0,0,0,.1.05l.16,0h.54a.62.62,0,0,0,.23-.07.89.89,0,0,0,.2-.19,2.66,2.66,0,0,0,.21-.36.1.1,0,0,1,.11,0q.08,0,.09.06c0,.07,0,.15,0,.24a2,2,0,0,1-.05.24c0,.08,0,.16-.07.23a1.13,1.13,0,0,1-.07.15H49.27a.12.12,0,0,1,0-.09.13.13,0,0,1,0-.1l.26,0a.39.39,0,0,0,.14,0,.14.14,0,0,0,.08-.07.39.39,0,0,0,0-.17,2.27,2.27,0,0,0,0-.29v-2a2.36,2.36,0,0,0,0-.29.35.35,0,0,0,0-.17.16.16,0,0,0-.08-.08l-.14,0-.14,0a.13.13,0,0,1,0-.1.1.1,0,0,1,0-.09H52a.68.68,0,0,0,0,.12,1.54,1.54,0,0,0,0,.19,2.46,2.46,0,0,0,0,.26c0,.09,0,.18,0,.27a.13.13,0,0,1-.09,0,.2.2,0,0,1-.11,0c0-.1-.06-.18-.09-.26a.83.83,0,0,0-.11-.17.56.56,0,0,0-.2-.12.93.93,0,0,0-.32-.05h-.53l-.06,0a.64.64,0,0,0,0,.07v1.06Z"/><path class="cls-2" d="M53.65,29.22a2.73,2.73,0,0,0,0-.31.5.5,0,0,0,0-.19.15.15,0,0,0-.07-.1l-.15,0h-.1l0,0s0,0,0-.06a.08.08,0,0,1,0-.06,0,0,0,0,1,0,0l.33,0,.34,0h.76a4.63,4.63,0,0,1,.65,0,2.29,2.29,0,0,1,.6.14,1.48,1.48,0,0,1,.46.26,1.64,1.64,0,0,1,.34.36,1.85,1.85,0,0,1,.21.45,1.61,1.61,0,0,1,.07.49,1.91,1.91,0,0,1-.24,1,1.79,1.79,0,0,1-.71.65,2,2,0,0,1-.61.19,4.18,4.18,0,0,1-.74.06H53.21a.12.12,0,0,1,0-.09.13.13,0,0,1,0-.1l.17,0,.14,0s.06,0,.08-.08a.39.39,0,0,0,0-.17,2.27,2.27,0,0,0,0-.29Zm.76,1.71a3.41,3.41,0,0,0,0,.37.43.43,0,0,0,.09.24.4.4,0,0,0,.19.11.66.66,0,0,0,.25,0,1.2,1.2,0,0,0,.59-.14,1,1,0,0,0,.38-.37,1.48,1.48,0,0,0,.21-.5,2.64,2.64,0,0,0,.06-.55A1.61,1.61,0,0,0,55.83,29a1.43,1.43,0,0,0-1.1-.41c-.15,0-.24,0-.28.07a.16.16,0,0,0,0,.11s0,.12,0,.2Z"/><path class="cls-2" d="M59.33,31.12c0,.12,0,.23,0,.3a.61.61,0,0,0,0,.17.15.15,0,0,0,.08.08l.15,0,.15,0a.13.13,0,0,1,0,.1.1.1,0,0,1,0,.09H58.14a.11.11,0,0,1,0-.09.15.15,0,0,1,0-.1l.15,0,.15,0s.06,0,.08-.08a.39.39,0,0,0,0-.17,2.54,2.54,0,0,0,0-.3v-2a2.63,2.63,0,0,0,0-.3.39.39,0,0,0,0-.17.2.2,0,0,0-.08-.08l-.15,0-.15,0a.12.12,0,0,1,0-.09.13.13,0,0,1,0-.1l.81,0,.81,0a.13.13,0,0,1,0,.1.12.12,0,0,1,0,.09l-.15,0-.15,0a.3.3,0,0,0-.08.08.61.61,0,0,0,0,.17c0,.08,0,.18,0,.3Z"/><path class="cls-2" d="M61.23,29.22V28.9a.5.5,0,0,0,0-.19.22.22,0,0,0-.07-.09l-.13,0-.15,0a.13.13,0,0,1,0-.1s0-.08.06-.09l.62,0h.7a3.89,3.89,0,0,1,.62.05,1.67,1.67,0,0,1,.43.14.9.9,0,0,1,.47.8.71.71,0,0,1-.06.31.73.73,0,0,1-.13.23,1,1,0,0,1-.19.16l-.19.11s0,0,0,.05,0,0,0,.07c.18.36.33.65.45.86a1.89,1.89,0,0,0,.38.49.57.57,0,0,0,.21.12l.15,0a.1.1,0,0,1,0,.07.08.08,0,0,1,0,.07.6.6,0,0,1-.18,0H63.9a1.22,1.22,0,0,1-.61-.14,1.11,1.11,0,0,1-.43-.43,4.23,4.23,0,0,1-.22-.42c-.07-.13-.13-.27-.19-.41a.38.38,0,0,0-.12-.15.29.29,0,0,0-.17,0c-.09,0-.14,0-.16,0s0,0,0,.1v1a.61.61,0,0,0,0,.17.15.15,0,0,0,.08.08l.15,0,.14,0a.13.13,0,0,1,0,.1.12.12,0,0,1,0,.09H60.82a.12.12,0,0,1,0-.09.13.13,0,0,1,0-.1l.14,0,.15,0a.15.15,0,0,0,.08-.08.61.61,0,0,0,0-.17v-2.2Zm.74.69V30l0,.06.1,0h.19a.53.53,0,0,0,.23,0A.39.39,0,0,0,62.7,30a.69.69,0,0,0,.13-.21.76.76,0,0,0,.07-.37.86.86,0,0,0-.2-.59.64.64,0,0,0-.5-.21h-.13l-.07,0a.19.19,0,0,0,0,.08.66.66,0,0,0,0,.15Z"/><path class="cls-2" d="M66,30.69h-.13a.43.43,0,0,0,0,.1l-.2.62a.5.5,0,0,1,0,.12v.08s0,0,0,0a.41.41,0,0,0,.15.05l.16,0a.15.15,0,0,1,0,.1c0,.05,0,.08,0,.09H64.74a.11.11,0,0,1,0-.09.17.17,0,0,1,0-.1h.14a.48.48,0,0,0,.18-.06.52.52,0,0,0,.15-.21c0-.11.1-.23.15-.37l.18-.49L66,29.27c.06-.17.12-.31.16-.41a.62.62,0,0,0,0-.28.67.67,0,0,0,.18-.07l.14-.11.1-.1a.12.12,0,0,1,0,0,.13.13,0,0,1,.13.11,2.55,2.55,0,0,0,.08.28l.16.46.72,2.11c0,.09.06.15.08.21a.46.46,0,0,0,.07.14.38.38,0,0,0,.09.09l.12,0,.2,0a.13.13,0,0,1,0,.1.12.12,0,0,1,0,.09H66.78a.11.11,0,0,1,0-.09.1.1,0,0,1,0-.1l.17,0,.12,0a.09.09,0,0,0,0-.05.66.66,0,0,0,0-.13L67,31.25l-.15-.47a.11.11,0,0,0-.07-.08H66Zm.57-.29.12,0a.2.2,0,0,0,0-.13l-.14-.44-.11-.33-.08-.24-.11.25a2.42,2.42,0,0,0-.11.35l-.14.4c0,.07,0,.12,0,.14l.12,0Z"/><path class="cls-2" d="M69.05,28.52a.16.16,0,0,1,0-.11s0-.07,0-.08l.67,0h.53a1.07,1.07,0,0,0,0,.25,1.43,1.43,0,0,0,.09.27c0,.1.08.2.13.3l.17.35.35.76s0,.07.06.12l.08.15s0,.1.08.16l.07.12c0-.06.08-.14.12-.23s.11-.22.18-.38l.27-.6c.07-.14.12-.26.17-.37a1.94,1.94,0,0,0,.13-.3,2.47,2.47,0,0,0,.1-.29c0-.09.06-.19.09-.31l.32,0h.87a.1.1,0,0,1,0,.09.1.1,0,0,1,0,.1l-.15,0a.52.52,0,0,0-.25.1.39.39,0,0,0-.08.28c0,.28,0,.53,0,.75v.6c0,.19,0,.36,0,.53s0,.33,0,.5a.69.69,0,0,0,0,.28.21.21,0,0,0,.2.12l.17,0a.18.18,0,0,1,0,.11s0,.07,0,.08H72s0,0,0-.09a.09.09,0,0,1,0-.1l.16,0a.39.39,0,0,0,.14,0,.17.17,0,0,0,.08-.06.35.35,0,0,0,0-.12V29.27h0l-.61,1.32q-.3.66-.57,1.35a.14.14,0,0,1-.1,0H71L71,32c-.06-.16-.13-.37-.23-.6s-.2-.48-.31-.73l-.33-.73-.28-.62h0c0,.17,0,.32,0,.45s0,.25,0,.39,0,.18,0,.29v.33c0,.11,0,.21,0,.32v.27c0,.07,0,.13,0,.17a.28.28,0,0,0,0,.11.13.13,0,0,0,.07.06.4.4,0,0,0,.13,0l.21,0a.15.15,0,0,1,0,.1c0,.05,0,.08,0,.09H69a.05.05,0,0,1,0,0s0,0,0-.06a.13.13,0,0,1,0-.06.05.05,0,0,1,0,0h.1l.16,0a.2.2,0,0,0,.09-.06.33.33,0,0,0,0-.12c0-.05,0-.11,0-.2s0-.31,0-.53,0-.46,0-.71,0-.38,0-.58,0-.37,0-.51a.44.44,0,0,0-.08-.31.53.53,0,0,0-.25-.12Z"/><path class="cls-2" d="M78.4,29.78a.29.29,0,0,0,0,.17.06.06,0,0,0,.06,0,.16.16,0,0,0,.09,0l.11-.08a.94.94,0,0,0,.1-.1l.08-.1.38-.5c.11-.15.21-.29.29-.42a.35.35,0,0,0,.06-.14.08.08,0,0,0,0,0l-.07,0-.12,0a.13.13,0,0,1,0-.1.08.08,0,0,1,.06-.09h1.21s0,0,0,.09a.15.15,0,0,1,0,.1l-.24,0a.47.47,0,0,0-.19.06,1,1,0,0,0-.32.23c-.11.11-.25.26-.42.46l-.22.28-.06.07a.43.43,0,0,1,0,.05.29.29,0,0,0,0,.09s.07.12.15.25.26.43.41.67a8.21,8.21,0,0,0,.47.73.66.66,0,0,0,.18.19.84.84,0,0,0,.19.07l.16,0a.31.31,0,0,1,0,.11.09.09,0,0,1,0,.08H79.29s-.05,0-.05-.08a.12.12,0,0,1,0-.11l.12,0c.06,0,.08,0,.08-.05a.19.19,0,0,0,0-.11l0-.08-.09-.15-.09-.15a.64.64,0,0,1-.06-.1l-.27-.44a2,2,0,0,0-.21-.32.19.19,0,0,0-.16-.1.09.09,0,0,0-.1.07,1.65,1.65,0,0,0,0,.29v.57a2.45,2.45,0,0,0,0,.3.5.5,0,0,0,0,.16.24.24,0,0,0,.08.09l.14,0,.13,0a.15.15,0,0,1,0,.1.11.11,0,0,1,0,.09H77.3a.11.11,0,0,1,0-.09.15.15,0,0,1,0-.1l.14,0,.13,0a.18.18,0,0,0,.08-.09.46.46,0,0,0,0-.16v-2.6a.53.53,0,0,0,0-.17s0-.07-.08-.08a.33.33,0,0,0-.13,0l-.14,0a.1.1,0,0,1,0-.09.11.11,0,0,1,0-.1l.75,0,.74,0a.11.11,0,0,1,0,.1.1.1,0,0,1,0,.09l-.13,0-.14,0a.15.15,0,0,0-.08.08.58.58,0,0,0,0,.17,2.36,2.36,0,0,0,0,.29Z"/><path class="cls-2" d="M83.07,28.26a2,2,0,0,1,.71.13,1.53,1.53,0,0,1,.55.39,1.63,1.63,0,0,1,.36.58,2.27,2.27,0,0,1,.13.75,2.42,2.42,0,0,1-.13.79,1.69,1.69,0,0,1-.37.59,1.52,1.52,0,0,1-.56.37A2,2,0,0,1,83,32a1.8,1.8,0,0,1-.69-.13,1.42,1.42,0,0,1-.54-.36,1.89,1.89,0,0,1-.36-.58,2.11,2.11,0,0,1-.13-.77,2.26,2.26,0,0,1,.13-.74,1.84,1.84,0,0,1,.37-.6,1.51,1.51,0,0,1,.56-.4A1.67,1.67,0,0,1,83.07,28.26Zm1,1.92a2.7,2.7,0,0,0-.07-.65,1.94,1.94,0,0,0-.19-.53,1.23,1.23,0,0,0-.31-.36.7.7,0,0,0-.42-.13.77.77,0,0,0-.4.11.89.89,0,0,0-.3.31,1.71,1.71,0,0,0-.18.48,3.89,3.89,0,0,0-.05.62,2.11,2.11,0,0,0,0,.35,2.44,2.44,0,0,0,.18.76,1.61,1.61,0,0,0,.19.31.9.9,0,0,0,.27.21.69.69,0,0,0,.36.09.63.63,0,0,0,.41-.13.83.83,0,0,0,.28-.33A1.41,1.41,0,0,0,84,30.8,4,4,0,0,0,84,30.18Z"/><path class="cls-2" d="M86.21,29.22V28.9a.5.5,0,0,0,0-.19.15.15,0,0,0-.06-.09l-.12,0-.14,0a.1.1,0,0,1,0-.1s0-.08,0-.09l.58,0h.65a3.3,3.3,0,0,1,.58.05,1.42,1.42,0,0,1,.4.14.9.9,0,0,1,.43.8.9.9,0,0,1-.17.54.85.85,0,0,1-.17.16l-.18.11s0,0,0,.05,0,0,0,.07c.16.36.3.65.42.86a1.88,1.88,0,0,0,.35.49.59.59,0,0,0,.19.12l.14,0a.08.08,0,0,1,0,.07.08.08,0,0,1,0,.07.53.53,0,0,1-.16,0h-.23a1,1,0,0,1-1-.57,4.11,4.11,0,0,1-.21-.42l-.18-.41a.36.36,0,0,0-.1-.15.29.29,0,0,0-.16,0c-.09,0-.14,0-.16,0s0,0,0,.1v1a.61.61,0,0,0,0,.17.11.11,0,0,0,.08.08l.13,0,.13,0a.13.13,0,0,1,0,.1.12.12,0,0,1,0,.09H85.83a.12.12,0,0,1,0-.09.13.13,0,0,1,0-.1l.13,0,.14,0s.05,0,.07-.08a.61.61,0,0,0,0-.17v-2.2Zm.69.69V30a.21.21,0,0,0,0,.06l.09,0h.17a.46.46,0,0,0,.22,0,.42.42,0,0,0,.16-.11,1,1,0,0,0,.12-.21.92.92,0,0,0,.06-.37.9.9,0,0,0-.18-.59.59.59,0,0,0-.47-.21H87a.09.09,0,0,0-.06,0,.19.19,0,0,0,0,.08.66.66,0,0,0,0,.15Z"/><path class="cls-2" d="M90.86,29.75c0,.07,0,.12,0,.14a.22.22,0,0,0,.12,0h.49l.11,0a.35.35,0,0,0,.06-.09.53.53,0,0,0,0-.16l0-.13,0,0h.11s0,0,0,0c0,.18,0,.37,0,.58s0,.4,0,.57c0,0,0,0,0,0l-.06,0h0l0,0,0-.13a.53.53,0,0,0,0-.16.35.35,0,0,0-.06-.09l-.11,0H91a.22.22,0,0,0-.12,0s0,.07,0,.14V31a2.82,2.82,0,0,0,0,.31.47.47,0,0,0,.07.2l0,.06a.19.19,0,0,0,.09.05l.15,0h.51a.52.52,0,0,0,.21-.07.85.85,0,0,0,.19-.19,2.85,2.85,0,0,0,.19-.36s0,0,.1,0,.07,0,.08.06a1.12,1.12,0,0,1,0,.24,2,2,0,0,1,0,.24l-.06.23-.06.15H89.66a.12.12,0,0,1,0-.09.13.13,0,0,1,0-.1l.23,0,.14,0a.12.12,0,0,0,.07-.07.61.61,0,0,0,0-.17c0-.07,0-.16,0-.29v-2c0-.12,0-.22,0-.29a.53.53,0,0,0,0-.17.14.14,0,0,0-.07-.08l-.14,0-.12,0a.13.13,0,0,1,0-.1.1.1,0,0,1,0-.09h2.43a.68.68,0,0,0,0,.12,1.54,1.54,0,0,0,0,.19,93.81,93.81,0,0,1,0,.53.12.12,0,0,1-.08,0,.18.18,0,0,1-.11,0,1,1,0,0,0-.09-.26.55.55,0,0,0-.1-.17.47.47,0,0,0-.18-.12.85.85,0,0,0-.3-.05h-.49a.06.06,0,0,0-.05,0,.14.14,0,0,0,0,.07v1.06Z"/><path class="cls-2" d="M94.21,30.69H94.1a.15.15,0,0,0,0,.1l-.19.62a.5.5,0,0,1,0,.12v.08s0,0,0,0a.42.42,0,0,0,.14.05l.15,0a.62.62,0,0,1,0,.1.1.1,0,0,1,0,.09h-1.1a.11.11,0,0,1,0-.09.16.16,0,0,1,0-.1h.13a.49.49,0,0,0,.17-.06.51.51,0,0,0,.14-.21l.14-.37c0-.14.1-.3.17-.49l.44-1.32.15-.41a.79.79,0,0,0,.05-.28.56.56,0,0,0,.16-.07.75.75,0,0,0,.13-.11l.1-.1s0,0,0,0,.09,0,.11.11,0,.17.08.28.08.26.15.46l.67,2.11.07.21a.46.46,0,0,0,.07.14.24.24,0,0,0,.08.09l.11,0,.19,0a.13.13,0,0,1,0,.1.12.12,0,0,1,0,.09H95s0,0,0-.09a.1.1,0,0,1,0-.1l.16,0a.32.32,0,0,0,.11,0,.06.06,0,0,0,0-.05.43.43,0,0,0,0-.13l-.07-.24L95,30.78a.19.19,0,0,0-.07-.08h-.73Zm.53-.29a.2.2,0,0,0,.11,0s0-.06,0-.13l-.13-.44c0-.12-.07-.23-.1-.33l-.07-.24c0,.06-.06.15-.1.25s-.07.22-.11.35l-.12.4a.19.19,0,0,0,0,.14l.12,0Z"/><path class="cls-2" d="M100.13,31v.5c0,.16,0,.28,0,.37a.23.23,0,0,1-.12.08.38.38,0,0,1-.17,0,1.36,1.36,0,0,1-.12-.17l-.12-.19-.17-.23L98.3,29.85,98,29.39a2.08,2.08,0,0,0-.19-.23.21.21,0,0,0,0,.12v1.27c0,.11,0,.22,0,.32a2.62,2.62,0,0,0,0,.29,1.64,1.64,0,0,0,0,.23l0,.15a.23.23,0,0,0,.12.12l.17.05.14,0a.17.17,0,0,1,0,.1.11.11,0,0,1,0,.09H97a.11.11,0,0,1,0-.09.17.17,0,0,1,0-.1h.09l.16-.06a.19.19,0,0,0,.11-.12l0-.15a1.64,1.64,0,0,0,0-.23,2.62,2.62,0,0,0,0-.29c0-.1,0-.21,0-.32V29a.53.53,0,0,0,0-.13.19.19,0,0,0,0-.08.14.14,0,0,0,0-.07.19.19,0,0,0-.09-.11.5.5,0,0,0-.19-.07l-.14,0s0-.06,0-.11,0-.07,0-.08h.69l.41,0a1.68,1.68,0,0,0,.26.49l.56.74.42.53.28.36a1.8,1.8,0,0,0,.2.24.37.37,0,0,0,0-.11s0-.08,0-.14V29.7c0-.11,0-.21,0-.32s0-.2,0-.28a1.29,1.29,0,0,0,0-.23.57.57,0,0,0,0-.16.25.25,0,0,0-.11-.12l-.18-.05-.13,0a.13.13,0,0,1,0-.1.12.12,0,0,1,0-.09H100l.56,0a.12.12,0,0,1,0,.09.13.13,0,0,1,0,.1l-.09,0a.69.69,0,0,0-.17.05.4.4,0,0,0-.1.12,1.57,1.57,0,0,0,0,.16,1.4,1.4,0,0,0,0,.23c0,.08,0,.18,0,.28V31Z"/><path class="cls-2" d="M104.13,28.52a.16.16,0,0,1,0-.11s0-.07,0-.08l.63,0h.49a1.07,1.07,0,0,0,0,.25,2.76,2.76,0,0,0,.08.27c0,.1.08.2.13.3a3.35,3.35,0,0,0,.15.35l.33.76,0,.12a1.07,1.07,0,0,1,.07.15l.08.16a.66.66,0,0,1,.06.12,1.61,1.61,0,0,0,.12-.23c0-.1.1-.22.16-.38l.26-.6.16-.37.12-.3.09-.29a2,2,0,0,0,.08-.31l.3,0h.8a.13.13,0,0,1,0,.09.17.17,0,0,1,0,.1l-.15,0a.41.41,0,0,0-.22.1.39.39,0,0,0-.08.28v.75c0,.22,0,.42,0,.6s0,.36,0,.53,0,.33,0,.5a1.42,1.42,0,0,0,0,.28.21.21,0,0,0,.19.12l.15,0a.14.14,0,0,1,0,.11.08.08,0,0,1,0,.08h-1.42a.1.1,0,0,1,0-.09.09.09,0,0,1,0-.1l.15,0a.33.33,0,0,0,.13,0s0,0,.07-.06a.35.35,0,0,0,0-.12V29.27h0c-.19.43-.37.87-.56,1.32s-.37.89-.53,1.35a.14.14,0,0,1-.1,0H106l-.06,0c0-.16-.12-.37-.21-.6s-.19-.48-.29-.73l-.31-.73-.25-.62h0q0,.26,0,.45c0,.12,0,.25,0,.39v1.21a.81.81,0,0,0,0,.17.18.18,0,0,0,0,.11.13.13,0,0,0,.07.06l.12,0,.19,0a.15.15,0,0,1,0,.1c0,.05,0,.08,0,.09h-1.14s0,0,0,0,0,0,0-.06a.13.13,0,0,1,0-.06l0,0h.08l.16,0a.24.24,0,0,0,.08-.06.34.34,0,0,0,0-.12,1,1,0,0,0,0-.2c0-.13,0-.31,0-.53s0-.46,0-.71l0-.58c0-.19,0-.37,0-.51a.44.44,0,0,0-.08-.31.5.5,0,0,0-.23-.12Z"/><path class="cls-2" d="M110.38,29.75a.37.37,0,0,0,0,.14.22.22,0,0,0,.12,0h.5l.1,0a.2.2,0,0,0,.06-.09,1,1,0,0,0,0-.16l0-.13,0,0h.11l0,0c0,.18,0,.37,0,.58s0,.4,0,.57l0,0-.05,0h-.06l0,0,0-.13a1,1,0,0,0,0-.16.2.2,0,0,0-.06-.09l-.1,0h-.5a.22.22,0,0,0-.12,0,.37.37,0,0,0,0,.14V31a1.42,1.42,0,0,0,0,.31.47.47,0,0,0,.06.2.17.17,0,0,0,.06.06.19.19,0,0,0,.09.05l.15,0h.5a.57.57,0,0,0,.22-.07,1.11,1.11,0,0,0,.18-.19,2.85,2.85,0,0,0,.19-.36.09.09,0,0,1,.1,0s.08,0,.09.06,0,.15,0,.24l-.06.24-.06.23a.57.57,0,0,1-.06.15h-2.65a.12.12,0,0,1,0-.09.13.13,0,0,1,0-.1l.24,0a.4.4,0,0,0,.13,0,.18.18,0,0,0,.08-.07.65.65,0,0,0,0-.17,2.27,2.27,0,0,0,0-.29v-2a2.36,2.36,0,0,0,0-.29.58.58,0,0,0,0-.17.2.2,0,0,0-.08-.08l-.13,0-.13,0a.13.13,0,0,1,0-.1.13.13,0,0,1,0-.09h2.43s0,.06,0,.12,0,.12,0,.19,0,.17,0,.26,0,.18,0,.27a.12.12,0,0,1-.08,0,.15.15,0,0,1-.1,0c0-.1-.06-.18-.09-.26a1.94,1.94,0,0,0-.1-.17.52.52,0,0,0-.19-.12.85.85,0,0,0-.3-.05h-.49l0,0a.14.14,0,0,0,0,.07v1.06Z"/><path class="cls-2" d="M113.25,29.22a2.73,2.73,0,0,0,0-.31.5.5,0,0,0,0-.19.13.13,0,0,0-.07-.1.33.33,0,0,0-.13,0h-.09s0,0,0,0a.13.13,0,0,1,0-.06s0,0,0-.06,0,0,0,0l.3,0,.32,0h.71a4,4,0,0,1,.6,0,2,2,0,0,1,.55.14,1.34,1.34,0,0,1,.43.26,1.49,1.49,0,0,1,.51.81,1.61,1.61,0,0,1,.07.49,2,2,0,0,1-.23,1,1.65,1.65,0,0,1-.66.65,1.69,1.69,0,0,1-.56.19,3.62,3.62,0,0,1-.69.06h-1.44a.12.12,0,0,1,0-.09.13.13,0,0,1,0-.1l.15,0,.14,0a.11.11,0,0,0,.07-.08.39.39,0,0,0,0-.17,2.27,2.27,0,0,0,0-.29Zm.71,1.71c0,.15,0,.28,0,.37a.43.43,0,0,0,.09.24.34.34,0,0,0,.17.11.61.61,0,0,0,.24,0,1,1,0,0,0,.54-.14,1,1,0,0,0,.36-.37,1.67,1.67,0,0,0,.19-.5,2.64,2.64,0,0,0,.06-.55,1.66,1.66,0,0,0-.35-1.14,1.27,1.27,0,0,0-1-.41c-.14,0-.22,0-.26.07a.53.53,0,0,0,0,.11v2.17Z"/><path class="cls-2" d="M118.53,31.12a2.54,2.54,0,0,0,0,.3.4.4,0,0,0,0,.17.15.15,0,0,0,.08.08l.14,0,.14,0s0,.05,0,.1a.12.12,0,0,1,0,.09h-1.5a.11.11,0,0,1,0-.09.15.15,0,0,1,0-.1l.14,0,.14,0a.15.15,0,0,0,.08-.08.65.65,0,0,0,0-.17,2.54,2.54,0,0,0,0-.3v-2a2.63,2.63,0,0,0,0-.3.65.65,0,0,0,0-.17.3.3,0,0,0-.08-.08l-.14,0-.14,0a.12.12,0,0,1,0-.09.13.13,0,0,1,0-.1l.76,0,.75,0a.13.13,0,0,1,0,.1.12.12,0,0,1,0,.09l-.14,0-.14,0-.08.08a.4.4,0,0,0,0,.17,2.63,2.63,0,0,0,0,.3Z"/><path class="cls-2" d="M121.9,28.26l.36,0,.29,0,.23,0,.15,0v.13c0,.06,0,.13,0,.21s0,.16,0,.25l0,.25a.08.08,0,0,1,0,0l0,0h-.06a.05.05,0,0,1,0,0,1.08,1.08,0,0,0-.34-.57.83.83,0,0,0-.59-.2.92.92,0,0,0-.42.1,1.07,1.07,0,0,0-.36.29,1.34,1.34,0,0,0-.26.49,2.1,2.1,0,0,0-.11.7,2.61,2.61,0,0,0,.1.72,2,2,0,0,0,.26.51,1.24,1.24,0,0,0,.37.32,1,1,0,0,0,.44.11.93.93,0,0,0,.39-.08,1,1,0,0,0,.29-.2,1.31,1.31,0,0,0,.2-.28,1.17,1.17,0,0,0,.13-.28.1.1,0,0,1,.1,0,.1.1,0,0,1,.09.06,3.71,3.71,0,0,1-.08.53,1.16,1.16,0,0,1-.11.31l-.46.13a1.93,1.93,0,0,1-.55.07,2.82,2.82,0,0,1-.71-.09,1.74,1.74,0,0,1-.62-.32,1.69,1.69,0,0,1-.45-.56,1.84,1.84,0,0,1-.18-.85,2,2,0,0,1,.17-.85,1.83,1.83,0,0,1,.43-.58,1.79,1.79,0,0,1,.63-.36A2.34,2.34,0,0,1,121.9,28.26Z"/><path class="cls-2" d="M125.06,31.12a2.54,2.54,0,0,0,0,.3.65.65,0,0,0,0,.17.15.15,0,0,0,.08.08l.14,0,.14,0a.13.13,0,0,1,0,.1.19.19,0,0,1,0,.09H124a.17.17,0,0,1,0-.09.25.25,0,0,1,0-.1l.14,0,.14,0s.06,0,.08-.08a.4.4,0,0,0,0-.17,2.54,2.54,0,0,0,0-.3v-2a2.63,2.63,0,0,0,0-.3.4.4,0,0,0,0-.17.2.2,0,0,0-.08-.08l-.14,0-.14,0a.2.2,0,0,1,0-.09.22.22,0,0,1,0-.1l.76,0,.75,0a.13.13,0,0,1,0,.1.12.12,0,0,1,0,.09l-.14,0-.14,0-.08.08a.65.65,0,0,0,0,.17,2.63,2.63,0,0,0,0,.3Z"/><path class="cls-2" d="M129.5,31v.5c0,.16,0,.28,0,.37a.23.23,0,0,1-.12.08.33.33,0,0,1-.17,0,1.36,1.36,0,0,1-.12-.17l-.13-.19a2.44,2.44,0,0,0-.16-.23l-1.14-1.54-.35-.46a2.08,2.08,0,0,0-.19-.23.35.35,0,0,0,0,.12v1.27c0,.11,0,.22,0,.32a2.62,2.62,0,0,0,0,.29,1.64,1.64,0,0,0,0,.23.54.54,0,0,0,0,.15.19.19,0,0,0,.11.12l.17.05.14,0a.17.17,0,0,1,0,.1.11.11,0,0,1,0,.09h-1.22a.17.17,0,0,1,0-.09.12.12,0,0,1,0-.1h.09l.16-.06a.19.19,0,0,0,.11-.12s0-.09,0-.15a1.64,1.64,0,0,0,0-.23,2.62,2.62,0,0,0,0-.29c0-.1,0-.21,0-.32V29a.53.53,0,0,0,0-.13.19.19,0,0,0,0-.08.14.14,0,0,0,0-.07.21.21,0,0,0-.08-.11.66.66,0,0,0-.2-.07l-.14,0a.27.27,0,0,1,0-.11.09.09,0,0,1,0-.08h.69l.41,0a1.68,1.68,0,0,0,.26.49l.56.74.42.53.28.36a1.8,1.8,0,0,0,.2.24.37.37,0,0,0,0-.11s0-.08,0-.14V29.7c0-.11,0-.21,0-.32s0-.2,0-.28,0-.17,0-.23a1.23,1.23,0,0,0,0-.16.25.25,0,0,0-.11-.12l-.18-.05-.13,0a.13.13,0,0,1,0-.1.12.12,0,0,1,0-.09h.66l.56,0a.12.12,0,0,1,0,.09.13.13,0,0,1,0,.1l-.09,0-.16.05a.32.32,0,0,0-.11.12,1.57,1.57,0,0,0,0,.16,1.4,1.4,0,0,0,0,.23c0,.08,0,.18,0,.28V31Z"/><path class="cls-2" d="M131.89,29.75c0,.07,0,.12,0,.14a.22.22,0,0,0,.12,0h.5l.1,0a.35.35,0,0,0,.06-.09,1,1,0,0,0,.05-.16l0-.13,0,0h.11s0,0,0,0c0,.18,0,.37,0,.58s0,.4,0,.57c0,0,0,0,0,0l0,0h-.06l0,0,0-.13a1,1,0,0,0-.05-.16.35.35,0,0,0-.06-.09l-.1,0H132a.22.22,0,0,0-.12,0s0,.07,0,.14V31a2.82,2.82,0,0,0,0,.31.66.66,0,0,0,.07.2l.05.06a.23.23,0,0,0,.1.05l.14,0h.51a.48.48,0,0,0,.21-.07.85.85,0,0,0,.19-.19,2.85,2.85,0,0,0,.19-.36s0,0,.1,0,.08,0,.08.06a1.12,1.12,0,0,1,0,.24,2,2,0,0,1,0,.24l-.06.23-.06.15h-2.65a.12.12,0,0,1,0-.09.13.13,0,0,1,0-.1l.23,0a.39.39,0,0,0,.14,0,.12.12,0,0,0,.07-.07.61.61,0,0,0,0-.17c0-.07,0-.16,0-.29v-2c0-.12,0-.22,0-.29a.53.53,0,0,0,0-.17.14.14,0,0,0-.07-.08l-.14,0-.12,0a.13.13,0,0,1,0-.1.1.1,0,0,1,0-.09h2.43a.68.68,0,0,0,0,.12,1.54,1.54,0,0,0,0,.19,93.81,93.81,0,0,1,0,.53.12.12,0,0,1-.08,0,.18.18,0,0,1-.11,0,1,1,0,0,0-.09-.26.55.55,0,0,0-.1-.17.41.41,0,0,0-.18-.12.85.85,0,0,0-.3-.05H132a.06.06,0,0,0-.05,0,.14.14,0,0,0,0,.07v1.06Z"/><path class="cls-2" d="M138.39,30.2h-.11a.08.08,0,0,0-.06,0s0,0,0,.05v1.16a.46.46,0,0,0,0,.16.18.18,0,0,0,.08.09l.13,0,.16,0a.15.15,0,0,1,0,.1.11.11,0,0,1,0,.09h-1.49a.11.11,0,0,1,0-.09.15.15,0,0,1,0-.1h.11l.14,0a.24.24,0,0,0,.08-.09,1.16,1.16,0,0,0,0-.16c0-.07,0-.17,0-.3v-2c0-.12,0-.22,0-.29a1.39,1.39,0,0,0,0-.17.15.15,0,0,0-.08-.08l-.14,0-.11,0a.13.13,0,0,1,0-.09.13.13,0,0,1,0-.1h1.42a.13.13,0,0,1,0,.1.12.12,0,0,1,0,.09l-.1,0a.4.4,0,0,0-.13,0s-.05,0-.07.08a.53.53,0,0,0,0,.17v1s0,0,0,.05a.08.08,0,0,0,.06,0h1.27a.08.08,0,0,0,.06,0,.08.08,0,0,0,0-.05s0-.05,0-.09v-.63c0-.12,0-.22,0-.29a.53.53,0,0,0,0-.17.11.11,0,0,0-.07-.08l-.14,0-.13,0a.12.12,0,0,1,0-.09.13.13,0,0,1,0-.1l.75,0,.7,0a.13.13,0,0,1,0,.1.12.12,0,0,1,0,.09l-.1,0a.4.4,0,0,0-.13,0s-.06,0-.08.08a.53.53,0,0,0,0,.17v2.6a.46.46,0,0,0,0,.16.18.18,0,0,0,.08.09l.13,0,.12,0a.15.15,0,0,1,0,.1.11.11,0,0,1,0,.09h-1.45a.11.11,0,0,1,0-.09.15.15,0,0,1,0-.1h.11l.14,0a.16.16,0,0,0,.07-.09.46.46,0,0,0,0-.16c0-.07,0-.17,0-.3v-.78s0-.06,0-.08a.08.08,0,0,0,0-.05.08.08,0,0,0-.06,0h-1.16Z"/><path class="cls-2" d="M143.52,28.26a1.94,1.94,0,0,1,.7.13,1.57,1.57,0,0,1,.56.39,1.61,1.61,0,0,1,.35.58,2,2,0,0,1,.13.75,2.18,2.18,0,0,1-.13.79,1.83,1.83,0,0,1-.36.59,1.56,1.56,0,0,1-.57.37,1.9,1.9,0,0,1-.73.13,1.73,1.73,0,0,1-.69-.13,1.46,1.46,0,0,1-.55-.36,1.89,1.89,0,0,1-.36-.58,2.35,2.35,0,0,1-.12-.77,2,2,0,0,1,.13-.74,1.81,1.81,0,0,1,.36-.6,1.6,1.6,0,0,1,.56-.4A1.72,1.72,0,0,1,143.52,28.26Zm.95,1.92a3.32,3.32,0,0,0-.07-.65,2,2,0,0,0-.2-.53,1.1,1.1,0,0,0-.31-.36.67.67,0,0,0-.41-.13.81.81,0,0,0-.41.11.87.87,0,0,0-.29.31,1.71,1.71,0,0,0-.18.48,3,3,0,0,0-.06.62c0,.11,0,.23,0,.35a2.63,2.63,0,0,0,.06.39,2.72,2.72,0,0,0,.13.37,1.23,1.23,0,0,0,.19.31.75.75,0,0,0,.26.21.74.74,0,0,0,.36.09.68.68,0,0,0,.42-.13.91.91,0,0,0,.28-.33,2,2,0,0,0,.16-.49A4,4,0,0,0,144.47,30.18Z"/><path class="cls-2" d="M148.46,30.9a1.13,1.13,0,0,1-.09.45.94.94,0,0,1-.25.34,1.2,1.2,0,0,1-.4.23,1.61,1.61,0,0,1-.51.07,1.67,1.67,0,0,1-.55-.07l-.29-.13a.3.3,0,0,1-.07-.14c0-.06,0-.13-.05-.21l0-.25a2.53,2.53,0,0,1,0-.28.09.09,0,0,1,.09-.05.12.12,0,0,1,.1,0,1.46,1.46,0,0,0,.11.28,1.31,1.31,0,0,0,.19.27,1,1,0,0,0,.25.21.53.53,0,0,0,.3.09.6.6,0,0,0,.24-.05.48.48,0,0,0,.16-.12.46.46,0,0,0,.1-.18.45.45,0,0,0,0-.2.54.54,0,0,0-.07-.29,1,1,0,0,0-.16-.24,1.37,1.37,0,0,0-.22-.19l-.23-.14a1.34,1.34,0,0,1-.27-.17,1,1,0,0,1-.24-.23.92.92,0,0,1-.17-.29.86.86,0,0,1-.07-.36,1.16,1.16,0,0,1,.08-.42.82.82,0,0,1,.23-.32,1.07,1.07,0,0,1,.36-.21,1.42,1.42,0,0,1,.48-.08l.27,0a1.09,1.09,0,0,1,.3.07l.17,0a2,2,0,0,1,.06.29,3.43,3.43,0,0,1,0,.48.15.15,0,0,1-.09.06.14.14,0,0,1-.11,0,1.14,1.14,0,0,0-.22-.44,1,1,0,0,0-.19-.17.54.54,0,0,0-.62.09A.54.54,0,0,0,147,29a.58.58,0,0,0,.13.35,1.69,1.69,0,0,0,.32.27l.33.18L148,30a1.67,1.67,0,0,1,.23.23,1.43,1.43,0,0,1,.16.3A1,1,0,0,1,148.46,30.9Z"/><path class="cls-2" d="M149.81,29.22c0-.14,0-.24,0-.33a.42.42,0,0,0,0-.18.12.12,0,0,0-.06-.09l-.12,0-.16,0s0,0,0-.09a.11.11,0,0,1,0-.09l.53,0h.61a2.66,2.66,0,0,1,.53,0,1.74,1.74,0,0,1,.38.1,1,1,0,0,1,.22.13.89.89,0,0,1,.2.19.85.85,0,0,1,.13.27.9.9,0,0,1,.06.34,1.13,1.13,0,0,1-.07.39.81.81,0,0,1-.16.27.73.73,0,0,1-.22.18,1.28,1.28,0,0,1-.24.11,1,1,0,0,1-.23,0l-.17,0h-.16s0,0,0-.07a.08.08,0,0,1,0-.07.74.74,0,0,0,.25-.14.9.9,0,0,0,.15-.19,1,1,0,0,0,.08-.25,2.46,2.46,0,0,0,0-.28,1.54,1.54,0,0,0,0-.3.83.83,0,0,0-.12-.27.58.58,0,0,0-.19-.19.54.54,0,0,0-.29-.07c-.09,0-.15,0-.17.06a.84.84,0,0,0,0,.21v2.58a.46.46,0,0,0,0,.16.22.22,0,0,0,.07.09l.14,0,.16,0a.12.12,0,0,1,0,.18h-1.51a.13.13,0,0,1,0-.09s0-.08,0-.09l.14,0,.14,0a.16.16,0,0,0,.07-.09.46.46,0,0,0,0-.16c0-.07,0-.17,0-.3Z"/><path class="cls-2" d="M154.11,31.12v.3a.61.61,0,0,0,0,.17s0,.07.08.08l.13,0,.14,0a.13.13,0,0,1,0,.1.12.12,0,0,1,0,.09H153a.11.11,0,0,1,0-.09.15.15,0,0,1,0-.1l.14,0,.13,0a.11.11,0,0,0,.08-.08.61.61,0,0,0,0-.17c0-.07,0-.18,0-.3v-2c0-.12,0-.22,0-.3a.61.61,0,0,0,0-.17.15.15,0,0,0-.08-.08l-.13,0-.14,0a.12.12,0,0,1,0-.09.13.13,0,0,1,0-.1l.75,0,.75,0a.13.13,0,0,1,0,.1.12.12,0,0,1,0,.09l-.14,0-.13,0a.2.2,0,0,0-.08.08.61.61,0,0,0,0,.17v2.29Z"/><path class="cls-2" d="M156.57,28.75a.42.42,0,0,0,0-.13s-.05,0-.11,0h-.31a.51.51,0,0,0-.22.05.31.31,0,0,0-.16.11.62.62,0,0,0-.12.19c0,.08-.07.17-.11.26a.12.12,0,0,1-.1,0,.1.1,0,0,1-.08-.07,2.55,2.55,0,0,0,.1-.51c0-.16,0-.3.06-.4a.11.11,0,0,1,.07,0l.07,0s0,0,0,.06a.06.06,0,0,0,.06,0,.29.29,0,0,0,.12,0h2.39l.08,0a.43.43,0,0,0,0-.07l.06,0,.05,0,0,0a.8.8,0,0,0,0,.18c0,.07,0,.15,0,.24s0,.17,0,.26v.25a.1.1,0,0,1-.09,0c-.05,0-.08,0-.09,0l-.06-.24a1.14,1.14,0,0,0-.1-.19.41.41,0,0,0-.14-.12.49.49,0,0,0-.23-.05h-.29a.17.17,0,0,0-.12,0,.31.31,0,0,0,0,.13v2.38c0,.13,0,.23,0,.3a.57.57,0,0,0,0,.16.15.15,0,0,0,.08.08l.14,0,.19,0a.15.15,0,0,1,0,.1.11.11,0,0,1,0,.09H156.1a.11.11,0,0,1,0-.09.15.15,0,0,1,0-.1l.22,0,.13,0s.06,0,.08-.08a.35.35,0,0,0,0-.16,2.45,2.45,0,0,0,0-.3Z"/><path class="cls-2" d="M159.81,30.69h-.11a.22.22,0,0,0,0,.1l-.19.62c0,.06,0,.1,0,.12a.22.22,0,0,0,0,.08s0,0,0,0a.42.42,0,0,0,.14.05l.15,0s0,.06,0,.1,0,.08,0,.09h-1.09s0,0,0-.09a.16.16,0,0,1,0-.1h.14a.44.44,0,0,0,.16-.06.51.51,0,0,0,.14-.21l.14-.37c0-.14.1-.3.17-.49l.44-1.32.15-.41a.79.79,0,0,0,.05-.28.46.46,0,0,0,.16-.07l.14-.11.09-.1s0,0,0,0,.1,0,.11.11l.08.28c0,.11.08.26.15.46l.67,2.11.07.21a.46.46,0,0,0,.07.14.24.24,0,0,0,.08.09l.11,0,.19,0a.13.13,0,0,1,0,.1.12.12,0,0,1,0,.09h-1.44a.11.11,0,0,1,0-.09.12.12,0,0,1,0-.1l.16,0a.32.32,0,0,0,.11,0,.09.09,0,0,0,0-.05.66.66,0,0,0,0-.13l-.07-.24-.13-.47a.19.19,0,0,0-.07-.08h-.73Zm.53-.29a.2.2,0,0,0,.11,0s0-.06,0-.13l-.13-.44a2.58,2.58,0,0,0-.1-.33,1,1,0,0,0-.08-.24c0,.06,0,.15-.09.25s-.07.22-.11.35l-.12.4a.19.19,0,0,0,0,.14l.12,0Z"/><path class="cls-2" d="M163.77,31a2.73,2.73,0,0,0,0,.32.38.38,0,0,0,.06.19l.06.06a.19.19,0,0,0,.09.05l.15,0h.22l.29,0a.38.38,0,0,0,.21-.07.66.66,0,0,0,.18-.19,2.21,2.21,0,0,0,.2-.36s.05,0,.1,0,.08,0,.09.06a2.08,2.08,0,0,1,0,.23l-.06.26-.06.22c0,.07,0,.13-.06.16h-2.6a.19.19,0,0,1,0-.09.13.13,0,0,1,0-.1l.19,0,.13,0a.15.15,0,0,0,.08-.08.35.35,0,0,0,0-.16,2.45,2.45,0,0,0,0-.3v-2a2.36,2.36,0,0,0,0-.29.37.37,0,0,0,0-.17.15.15,0,0,0-.08-.08.4.4,0,0,0-.13,0l-.15,0a.11.11,0,0,1,0-.1.13.13,0,0,1,0-.09l.75,0,.73,0a.13.13,0,0,1,0,.1.12.12,0,0,1,0,.09l-.13,0a.4.4,0,0,0-.13,0,.15.15,0,0,0-.08.08.37.37,0,0,0,0,.17,2.36,2.36,0,0,0,0,.29Z"/></g></g></svg>