<svg xmlns="http://www.w3.org/2000/svg" viewBox="0 0 165.42 34"><g id="레이어_2" data-name="레이어 2"><g id="레이어_1-2" data-name="레이어 1"><g id="레이어_2-2" data-name="레이어 2"><g id="Layer_1" data-name="Layer 1"><path d="M52.19,23.87V12.42H50.63v5.14H45.46A1.9,1.9,0,0,1,44,17a1.8,1.8,0,0,1-.54-1.39v-9h7.16V10.7h1.56V6H54.9V23.87Zm-4.44-8V8.35H46.34v7.57ZM58.82,6V23.87H56.08V6Z"/><path d="M73.09,15.15V6H76V23.86H73.09v-7.3a4.42,4.42,0,0,1-1.41.51,7.27,7.27,0,0,1-1.68.19H63.82a2,2,0,0,1-1.45-.5,1.72,1.72,0,0,1-.56-1.41V6.59h8.88V8.25h-6v7.4h5.46a11.48,11.48,0,0,0,1.66-.12A4.15,4.15,0,0,0,73.09,15.15Z"/><path d="M88.73,13.23l.73-.19a2.18,2.18,0,0,0,.56-.19V6h2.92V9.18h2.47a1.09,1.09,0,0,0,.44,0v1.7H92.94v4.55H90V14.22a3.41,3.41,0,0,1-.6.31,4.32,4.32,0,0,1-.77.25,6.09,6.09,0,0,1-.85.17,4.87,4.87,0,0,1-.93.08h-6a1.92,1.92,0,0,1-1.43-.56,1.67,1.67,0,0,1-.58-1.37v-3a.43.43,0,0,1,0-.16V9.82H85.1V8H78.69V6.36H88v5H81.78v1.93h5.27a6.61,6.61,0,0,0,.89,0A5.25,5.25,0,0,0,88.73,13.23ZM81.12,22V17.21a1,1,0,0,1,0-.25v-.23H92.9v7.16H83.15a2,2,0,0,1-1.47-.5A1.91,1.91,0,0,1,81.12,22ZM84,18.39v3.88h6V18.39Z"/><path d="M102.57,5.88a.31.31,0,0,0,0,.19V7.73a.71.71,0,0,0,0,.29h3.73V9.66H104a4.72,4.72,0,0,1,1.2,1.28,3.3,3.3,0,0,1,.44,1.68,3.37,3.37,0,0,1-.36,1.56,4.26,4.26,0,0,1-1,1.27,4.75,4.75,0,0,1-3.2,1.14,5,5,0,0,1-1.74-.31A4.38,4.38,0,0,1,97,14.18a3.26,3.26,0,0,1-.37-1.56,3.32,3.32,0,0,1,.46-1.68,4,4,0,0,1,1.22-1.28H96V8h3.73V5.88ZM99.23,22V18.16h2.9a1.41,1.41,0,0,0,0,.29v3.86h9.21V24h-10.1a2,2,0,0,1-1.45-.52A1.86,1.86,0,0,1,99.23,22Zm1.9-11.78a1.61,1.61,0,0,0-1.22.68,2.2,2.2,0,0,0-.37.77,2.39,2.39,0,0,0-.17.95,2.82,2.82,0,0,0,.15,1,2,2,0,0,0,.37.77,1.82,1.82,0,0,0,.56.51,1.19,1.19,0,0,0,.68.21,1.6,1.6,0,0,0,1.27-.74,7.91,7.91,0,0,0,.35-.79,2.91,2.91,0,0,0,.15-.92,2.6,2.6,0,0,0-.13-.78,3.81,3.81,0,0,0-.31-.79,2.45,2.45,0,0,0-.56-.6A1.33,1.33,0,0,0,101.13,10.22Zm6.64,9.06V6.09h2.91a1.61,1.61,0,0,0,0,.31V9.68a4.51,4.51,0,0,0,0,.52h2.92v1.64h-2.92v7.44Z"/><path d="M123.41,15.28h-7.07a1.92,1.92,0,0,1-1.47-.54,1.73,1.73,0,0,1-.54-1.39V6.55h2.86V9.16h3.3V6.55h2.92Zm-6.22-4.48v2.84h3.3V10.8ZM128,20.42a3.48,3.48,0,0,1-.42,1.64,4.92,4.92,0,0,1-1.16,1.33,6,6,0,0,1-1.68.87,6.61,6.61,0,0,1-4,0,5.29,5.29,0,0,1-1.63-.85A4.13,4.13,0,0,1,118,22.06a3.21,3.21,0,0,1,0-3.25,3.69,3.69,0,0,1,1.14-1.31,5.4,5.4,0,0,1,1.63-.89,6.48,6.48,0,0,1,2-.31,7.41,7.41,0,0,1,1.87.27,5.55,5.55,0,0,1,1.68.81,5.47,5.47,0,0,1,1.24,1.3A3.35,3.35,0,0,1,128,20.42Zm-2.93,0a2.93,2.93,0,0,0-.16-.93,2.94,2.94,0,0,0-.54-.81,3.54,3.54,0,0,0-.73-.54,2.4,2.4,0,0,0-.91-.2,2.1,2.1,0,0,0-.89.2,4,4,0,0,0-.75.54,3.76,3.76,0,0,0-.5.81,2.14,2.14,0,0,0-.21.93,2.36,2.36,0,0,0,.19.94,3,3,0,0,0,.5.81,5.91,5.91,0,0,0,.77.54,2.1,2.1,0,0,0,.89.2,2.72,2.72,0,0,0,.93-.2,3.83,3.83,0,0,0,.73-.54,2.65,2.65,0,0,0,.7-1.75Zm.48-4.29V6.07h2.88V9.41h2.91v1.66h-2.91v5.06Z"/><path d="M141.54,8.39h2.53v-2a2,2,0,0,0,0-.35H147V16.13h-2.93V13.87h-2.53V15.3h-7.07a2,2,0,0,1-1.45-.5,1.72,1.72,0,0,1-.57-1.41V6.55h2.91a1.41,1.41,0,0,0,0,.41V9.2h3.26V7a2.81,2.81,0,0,0,0-.41h2.92Zm-6.18,2.51v2.78h3.26V10.9Zm9.5,6.62a3.65,3.65,0,0,1,1.49,2.9,3.4,3.4,0,0,1-.41,1.68,5.1,5.1,0,0,1-1.14,1.31,6.64,6.64,0,0,1-1.68.85,6.61,6.61,0,0,1-4,0,5.55,5.55,0,0,1-1.66-.89,4.09,4.09,0,0,1-1.14-1.31,3.25,3.25,0,0,1-.41-1.64,3.16,3.16,0,0,1,.43-1.59,4.09,4.09,0,0,1,1.14-1.31,5.55,5.55,0,0,1,1.66-.89,6.54,6.54,0,0,1,5.75.89Zm-2.07,4.67a2.63,2.63,0,0,0,.68-1.77,2.39,2.39,0,0,0-.19-.91,3.07,3.07,0,0,0-.49-.79,3.19,3.19,0,0,0-.75-.56,2.29,2.29,0,0,0-.93-.2,2.15,2.15,0,0,0-.9.2,2.72,2.72,0,0,0-.72.54,2.85,2.85,0,0,0-.5.79,2.71,2.71,0,0,0-.19.93,2.36,2.36,0,0,0,.19.94,2.56,2.56,0,0,0,.48.81,3,3,0,0,0,.74.54,2.15,2.15,0,0,0,.9.2A2.41,2.41,0,0,0,142.79,22.19Zm-1.25-9.94h2.53V10h-2.53Z"/><path d="M160.56,15.74h-4.48v2.44h-2.92V15.74h-3.95V14.22h11.35ZM154.94,6a6.33,6.33,0,0,1,1.78.25,5.43,5.43,0,0,1,1.52.72,4.43,4.43,0,0,1,1,1.16,3.32,3.32,0,0,1,0,3.12,4.17,4.17,0,0,1-2.58,1.84,6.14,6.14,0,0,1-1.76.25,5.92,5.92,0,0,1-1.72-.25,4.25,4.25,0,0,1-1.5-.72,3.28,3.28,0,0,1-1.05-1.17,2.76,2.76,0,0,1-.4-1.51,3.06,3.06,0,0,1,.44-1.64,3.8,3.8,0,0,1,1.12-1.14,5.69,5.69,0,0,1,1.51-.68A6.07,6.07,0,0,1,154.94,6Zm-2.49,16V19h2.9v3.28h10V24H154.46a2,2,0,0,1-1.45-.54A1.9,1.9,0,0,1,152.45,22Zm2.49-14.42a1.73,1.73,0,0,0-1.43.58,2.5,2.5,0,0,0-.46,1.54,2.08,2.08,0,0,0,.52,1.49,1.63,1.63,0,0,0,1.37.6,1.71,1.71,0,0,0,1.43-.62,2.36,2.36,0,0,0,.48-1.47,2.87,2.87,0,0,0-.11-.77,2.58,2.58,0,0,0-.35-.68,2.15,2.15,0,0,0-.6-.48A1.92,1.92,0,0,0,154.94,7.58Zm6.86,12.1V18h-3.93V16.57h3.93V6.09h2.93V19.68Z"/><path d="M20.69,34a18.28,18.28,0,0,0,2.43-.7,41.53,41.53,0,0,1-5.43-3.55l-.56-.43-.55.43a41.35,41.35,0,0,1-5.42,3.54,15.7,15.7,0,0,0,2.43.7c1.21-.73,2.39-1.52,3.54-2.38A40.94,40.94,0,0,0,20.69,34Z"/><path d="M26.55,31.54a19.62,19.62,0,0,0,1.65-1.23A35.11,35.11,0,0,1,17.78,23l-.65-.65-.64.65a35.31,35.31,0,0,1-10.4,7.3,15.28,15.28,0,0,0,1.65,1.22,37,37,0,0,0,9.39-6.58A37.19,37.19,0,0,0,26.55,31.54Z"/><path d="M21.29,9.5A31.13,31.13,0,0,0,23,3,19.85,19.85,0,0,0,34.3,16.41a18.63,18.63,0,0,0-.22-2.11,18,18,0,0,1-9.5-12.61c-.44-.22-.9-.41-1.37-.59l-.6-.21-.29-.1C22,.7,21.73.61,21.43.54a29.23,29.23,0,0,1-1.25,6.61c-.26.83-.56,1.65-.89,2.45a30.23,30.23,0,0,1-2.17,4.24c-.35.56-.72,1.11-1.1,1.65A29.77,29.77,0,0,1,2.4,26c.16.27.33.54.5.79s.36.52.54.76a31.56,31.56,0,0,0,13.68-10.5A31.54,31.54,0,0,0,30.88,27.48a11.06,11.06,0,0,0,1-1.55,29.78,29.78,0,0,1-13.7-10.45A30.38,30.38,0,0,0,20.4,11.6,25.77,25.77,0,0,0,33.53,22.32,15.54,15.54,0,0,0,34,20.54,23.83,23.83,0,0,1,21.29,9.5Z"/><path d="M17.15,0h-.44a6.28,6.28,0,0,0-1.06.06A23.17,23.17,0,0,1,14,7.16a23,23,0,0,1-1.1,2.36A23.92,23.92,0,0,1,.32,20.58a17.68,17.68,0,0,0,.46,1.77A25.72,25.72,0,0,0,13.83,11.61c.4-.65.77-1.32,1.1-2A25.07,25.07,0,0,0,17.1,3.08,24.67,24.67,0,0,0,17.48,0Z"/><path d="M11,1.14q-.71.27-1.38.6A18,18,0,0,1,.22,14.32,16.74,16.74,0,0,0,0,16.44,19.89,19.89,0,0,0,11.21,3c.15-.67.28-1.35.37-2A1.65,1.65,0,0,0,11,1.14Z"/><path d="M43.84,28.52a.21.21,0,0,1,0-.11v-.08H45a1,1,0,0,0,0,.25,1.43,1.43,0,0,0,.09.27c0,.1.09.2.14.3s.1.23.16.35l.35.76.06.12a1.09,1.09,0,0,1,.08.15.8.8,0,0,1,.08.16l.07.12c0-.06.08-.14.13-.23s.1-.22.17-.38l.28-.6.17-.37c0-.1.09-.2.13-.3s.07-.19.1-.29.06-.19.09-.31h1.18a.14.14,0,0,1,0,.09.17.17,0,0,1,0,.1h-.16a.43.43,0,0,0-.24.1c-.06.05-.08.14-.08.28v2.38a1.31,1.31,0,0,0,0,.28.24.24,0,0,0,.2.12h.17a.21.21,0,0,1,0,.11v.08h-1.4s-.05,0-.05-.09a.17.17,0,0,1,0-.1h.3a.13.13,0,0,0,.07-.06.24.24,0,0,0,0-.12V29.27h0q-.3.64-.6,1.32c-.2.45-.38.9-.53,1.35h-.25a2.24,2.24,0,0,0-.22-.6c-.09-.23-.2-.48-.32-.73l-.33-.73c-.11-.24-.2-.45-.27-.62h0v2a.49.49,0,0,0,0,.17.21.21,0,0,0,0,.11.16.16,0,0,0,.08.06H45a.17.17,0,0,1,0,.1.14.14,0,0,1,0,.09H43.77v-.12H44a.18.18,0,0,0,.09-.06.24.24,0,0,0,0-.12.67.67,0,0,0,0-.2V29A.39.39,0,0,0,44,28.7a.55.55,0,0,0-.24-.12Z"/><path d="M50.56,29.75a.33.33,0,0,0,0,.14h.78a.22.22,0,0,0,.07-.09v-.29h.11v1.15h0a.06.06,0,0,1-.06,0h-.05v-.29a.22.22,0,0,0-.07-.09h-.65a.29.29,0,0,0-.13,0,.33.33,0,0,0,0,.14V31a1.61,1.61,0,0,0,0,.31.48.48,0,0,0,.07.2l.06.06.1.05h.7a.62.62,0,0,0,.23-.07.9.9,0,0,0,.2-.19,2.12,2.12,0,0,0,.21-.36.11.11,0,0,1,.11,0,.08.08,0,0,1,.09.06v.24a2,2,0,0,1,0,.24.29.29,0,0,1-.07.23,1,1,0,0,1-.07.15H49.27a.14.14,0,0,1,0-.09.17.17,0,0,1,0-.1h.4a.18.18,0,0,0,.08-.07.49.49,0,0,0,0-.17,1.41,1.41,0,0,0,0-.29v-2a1.41,1.41,0,0,0,0-.29.49.49,0,0,0,0-.17.16.16,0,0,0-.08-.08h-.28a.17.17,0,0,1,0-.1.14.14,0,0,1,0-.09H52v.84a.14.14,0,0,1-.09,0,.21.21,0,0,1-.11,0,.73.73,0,0,0-.09-.26,1,1,0,0,0-.11-.17.82.82,0,0,0-.2-.12.86.86,0,0,0-.32-.05h-.59v1.13Z"/><path d="M53.65,29.22a1.61,1.61,0,0,0,0-.31.61.61,0,0,0,0-.19.14.14,0,0,0-.07-.1h-.25v-.06a.06.06,0,0,1,0-.06h1.43a3.53,3.53,0,0,1,.65,0,2.39,2.39,0,0,1,.6.14,1.61,1.61,0,0,1,.46.26,1.46,1.46,0,0,1,.34.36,1.85,1.85,0,0,1,.21.45,1.61,1.61,0,0,1,.07.49,2,2,0,0,1-.24,1,1.78,1.78,0,0,1-.71.65,1.88,1.88,0,0,1-.61.19,4.52,4.52,0,0,1-.74.06H53.21a.14.14,0,0,1,0-.09.17.17,0,0,1,0-.1h.31s.06,0,.08-.08a.49.49,0,0,0,0-.17,1.41,1.41,0,0,0,0-.29Zm.76,1.71a2.29,2.29,0,0,0,0,.37.42.42,0,0,0,.09.24.45.45,0,0,0,.19.11.53.53,0,0,0,.25,0,1.2,1.2,0,0,0,.59-.14,1,1,0,0,0,.38-.37,1.48,1.48,0,0,0,.21-.5,2.57,2.57,0,0,0,.06-.55A1.6,1.6,0,0,0,55.83,29a1.41,1.41,0,0,0-1.1-.41c-.15,0-.24,0-.28.07a.21.21,0,0,0,0,.11V29Z"/><path d="M59.33,31.12v.3a.49.49,0,0,0,0,.17.16.16,0,0,0,.08.08h.3a.17.17,0,0,1,0,.1.14.14,0,0,1,0,.09H58.14a.14.14,0,0,1,0-.09.17.17,0,0,1,0-.1h.3s.06,0,.08-.08a.49.49,0,0,0,0-.17,1.5,1.5,0,0,0,0-.3v-2a1.5,1.5,0,0,0,0-.3.49.49,0,0,0,0-.17l-.08-.08h-.3a.14.14,0,0,1,0-.09.17.17,0,0,1,0-.1h1.62a.17.17,0,0,1,0,.1.14.14,0,0,1,0,.09h-.3a.3.3,0,0,0-.08.08.49.49,0,0,0,0,.17v.3Z"/><path d="M61.23,29.22V28.9a.61.61,0,0,0,0-.19.22.22,0,0,0-.07-.09h-.28a.17.17,0,0,1,0-.1s0-.08.06-.09h1.32a4.32,4.32,0,0,1,.62.05,1.66,1.66,0,0,1,.43.14.92.92,0,0,1,.47.8.81.81,0,0,1-.06.31.76.76,0,0,1-.13.23l-.19.16-.19.11v.12c.18.36.33.65.45.86a2,2,0,0,0,.38.49.55.55,0,0,0,.21.12h.15a.09.09,0,0,1,0,.07.09.09,0,0,1,0,.07h-.5a1.19,1.19,0,0,1-.61-.14,1.11,1.11,0,0,1-.43-.43c-.08-.14-.15-.28-.22-.42s-.13-.27-.19-.41a.44.44,0,0,0-.12-.15.25.25,0,0,0-.17,0H62s0,0,0,.1v1a.49.49,0,0,0,0,.17.16.16,0,0,0,.08.08h.29a.17.17,0,0,1,0,.1.14.14,0,0,1,0,.09H60.82a.14.14,0,0,1,0-.09.17.17,0,0,1,0-.1h.29a.16.16,0,0,0,.08-.08.49.49,0,0,0,0-.17v-2.2Zm.74.69v.15h.29a.45.45,0,0,0,.23,0A.39.39,0,0,0,62.7,30a.57.57,0,0,0,.13-.21.79.79,0,0,0,.07-.37.85.85,0,0,0-.2-.59.64.64,0,0,0-.5-.21H62a.11.11,0,0,0,0,.08.38.38,0,0,0,0,.15Z"/><path d="M66,30.69h-.13v.1l-.2.62v.2h0a.44.44,0,0,0,.15.05H66a.17.17,0,0,1,0,.1v.09H64.74a.14.14,0,0,1,0-.09.17.17,0,0,1,0-.1h.14l.18-.06a.51.51,0,0,0,.15-.21c0-.11.1-.23.15-.37l.18-.49L66,29.27c.06-.17.12-.31.16-.41a.66.66,0,0,0,0-.28.67.67,0,0,0,.18-.07l.14-.11.1-.1h0a.14.14,0,0,1,.13.11c0,.09.05.19.08.28l.16.46.72,2.11c0,.09.06.15.08.21a.61.61,0,0,0,.07.14.38.38,0,0,0,.09.09h.32a.17.17,0,0,1,0,.1.14.14,0,0,1,0,.09H66.78a.14.14,0,0,1,0-.09.09.09,0,0,1,0-.1h.29v-.18L67,31.25l-.15-.47a.1.1,0,0,0-.07-.08H66Zm.57-.29h.12a.29.29,0,0,0,0-.13l-.14-.44-.11-.33-.08-.24-.11.25a2,2,0,0,0-.11.35l-.14.4v.14h.57Z"/><path d="M69.05,28.52a.21.21,0,0,1,0-.11v-.08h1.2a1,1,0,0,0,0,.25,1.43,1.43,0,0,0,.09.27.78.78,0,0,0,.13.3l.17.35.35.76a.17.17,0,0,0,.06.12l.08.15a.22.22,0,0,0,.08.16l.07.12c0-.06.08-.14.12-.23s.11-.22.18-.38l.27-.6c.07-.14.12-.26.17-.37a1.94,1.94,0,0,0,.13-.3,2.47,2.47,0,0,0,.1-.29,1.69,1.69,0,0,1,.09-.31h1.19a.14.14,0,0,1,0,.09.09.09,0,0,1,0,.1h-.15a.55.55,0,0,0-.25.1.4.4,0,0,0-.08.28v2.38a.66.66,0,0,0,0,.28.22.22,0,0,0,.2.12h.17a.21.21,0,0,1,0,.11v.08H72v-.09a.09.09,0,0,1,0-.1h.16a.33.33,0,0,0,.14,0,.16.16,0,0,0,.08-.06.24.24,0,0,0,0-.12V29.27h0l-.61,1.32q-.3.66-.57,1.35H71V32c-.06-.16-.13-.37-.23-.6l-.31-.73-.33-.73-.28-.62h0v2.22a.21.21,0,0,0,0,.11.13.13,0,0,0,.07.06h.34a.17.17,0,0,1,0,.1v.09H69v-.12h.26a.18.18,0,0,0,.09-.06.24.24,0,0,0,0-.12V29.07a.48.48,0,0,0-.08-.31.58.58,0,0,0-.25-.12Z"/><path d="M78.4,29.78a.25.25,0,0,0,0,.17.06.06,0,0,0,.06,0,.14.14,0,0,0,.09,0l.11-.08a.47.47,0,0,0,.1-.1l.08-.1.38-.5c.11-.15.21-.29.29-.42a.35.35,0,0,0,.06-.14h-.19a.17.17,0,0,1,0-.1.08.08,0,0,1,.06-.09h1.21v.09a.17.17,0,0,1,0,.1h-.24a.6.6,0,0,0-.19.06.9.9,0,0,0-.32.23c-.11.11-.25.26-.42.46l-.22.28-.06.07v.14l.15.25.41.67a7,7,0,0,0,.47.73.81.81,0,0,0,.18.19l.19.07h.16a.21.21,0,0,1,0,.11.11.11,0,0,1,0,.08H79.29s-.05,0-.05-.08a.11.11,0,0,1,0-.11h.12c.06,0,.08,0,.08-.05a.21.21,0,0,0,0-.11v-.08l-.09-.15-.09-.15-.06-.1-.27-.44a2.2,2.2,0,0,0-.21-.32.18.18,0,0,0-.16-.1.08.08,0,0,0-.1.07,1.41,1.41,0,0,0,0,.29v.57a1.5,1.5,0,0,0,0,.3.43.43,0,0,0,0,.16.24.24,0,0,0,.08.09h.27a.17.17,0,0,1,0,.1.14.14,0,0,1,0,.09H77.3a.14.14,0,0,1,0-.09.17.17,0,0,1,0-.1h.27a.18.18,0,0,0,.08-.09.43.43,0,0,0,0-.16v-2.6a.49.49,0,0,0,0-.17.08.08,0,0,0-.08-.08.29.29,0,0,0-.13,0H77.3a.14.14,0,0,1,0-.09.09.09,0,0,1,0-.1h1.49a.09.09,0,0,1,0,.1.14.14,0,0,1,0,.09h-.27a.16.16,0,0,0-.08.08.49.49,0,0,0,0,.17,1.41,1.41,0,0,0,0,.29Z"/><path d="M83.07,28.26a1.94,1.94,0,0,1,.71.13,1.53,1.53,0,0,1,.55.39,1.66,1.66,0,0,1,.36.58,2.11,2.11,0,0,1,.13.75,2.34,2.34,0,0,1-.13.79,1.73,1.73,0,0,1-.37.59,1.61,1.61,0,0,1-.56.37A2,2,0,0,1,83,32a1.8,1.8,0,0,1-.69-.13,1.42,1.42,0,0,1-.54-.36,1.94,1.94,0,0,1-.36-.58,2.27,2.27,0,0,1-.13-.77,2.35,2.35,0,0,1,.13-.74,1.77,1.77,0,0,1,.37-.6,1.6,1.6,0,0,1,.56-.4A1.69,1.69,0,0,1,83.07,28.26Zm1,1.92a2.81,2.81,0,0,0-.07-.65,2.1,2.1,0,0,0-.19-.53,1.19,1.19,0,0,0-.31-.36.7.7,0,0,0-.42-.13.8.8,0,0,0-.4.11.89.89,0,0,0-.3.31,2,2,0,0,0-.18.48,4.32,4.32,0,0,0,0,.62,2,2,0,0,0,0,.35,2.48,2.48,0,0,0,.18.76,2,2,0,0,0,.19.31.9.9,0,0,0,.27.21.74.74,0,0,0,.36.09.61.61,0,0,0,.41-.13.81.81,0,0,0,.28-.33A1.41,1.41,0,0,0,84,30.8a3.21,3.21,0,0,0,0-.62Z"/><path d="M86.21,29.22V28.9a.61.61,0,0,0,0-.19.15.15,0,0,0-.06-.09h-.26a.09.09,0,0,1,0-.1v-.09h1.23a3.79,3.79,0,0,1,.58.05,1.47,1.47,0,0,1,.4.14.9.9,0,0,1,.43.8,1,1,0,0,1-.17.54,1.29,1.29,0,0,1-.17.16l-.18.11v.12c.16.36.3.65.42.86a1.9,1.9,0,0,0,.35.49.76.76,0,0,0,.19.12h.14a.09.09,0,0,1,0,.07.09.09,0,0,1,0,.07h-.39a1,1,0,0,1-1-.57,4.11,4.11,0,0,1-.21-.42l-.18-.41a.31.31,0,0,0-.1-.15.22.22,0,0,0-.16,0h-.16s0,0,0,.1v1a.49.49,0,0,0,0,.17.11.11,0,0,0,.08.08h.26a.17.17,0,0,1,0,.1.14.14,0,0,1,0,.09H85.83a.14.14,0,0,1,0-.09.17.17,0,0,1,0-.1h.27s.05,0,.07-.08a.49.49,0,0,0,0-.17v-2.2Zm.69.69v.15h.26a.41.41,0,0,0,.22,0,.36.36,0,0,0,.16-.11.88.88,0,0,0,.12-.21.78.78,0,0,0,.06-.37.9.9,0,0,0-.18-.59.58.58,0,0,0-.47-.21H87a.06.06,0,0,0-.06,0,.11.11,0,0,0,0,.08.38.38,0,0,0,0,.15Z"/><path d="M90.86,29.75v.14h.72l.06-.09a.43.43,0,0,0,0-.16v-.13h.11v1.15h-.06v-.13a.43.43,0,0,0,0-.16l-.06-.09H91a.24.24,0,0,0-.12,0V31a1.61,1.61,0,0,0,0,.31.48.48,0,0,0,.07.2v.06l.09.05h.66a.52.52,0,0,0,.21-.07.86.86,0,0,0,.19-.19,3.13,3.13,0,0,0,.19-.36h.1c.1,0,.07,0,.08.06a1,1,0,0,1,0,.24v.24l-.06.23-.06.15H89.66a.14.14,0,0,1,0-.09.17.17,0,0,1,0-.1H90a.12.12,0,0,0,.07-.07.49.49,0,0,0,0-.17V28.91a.49.49,0,0,0,0-.17.18.18,0,0,0-.07-.08h-.26a.17.17,0,0,1,0-.1.14.14,0,0,1,0-.09H92.2v.84a.11.11,0,0,1-.08,0,.21.21,0,0,1-.11,0,1.14,1.14,0,0,0-.09-.26.59.59,0,0,0-.1-.17.57.57,0,0,0-.18-.12,1,1,0,0,0-.3-.05h-.49a0,0,0,0,0,0,0,.09.09,0,0,0,0,.07v1.06Z"/><path d="M94.21,30.69H94.1a.17.17,0,0,0,0,.1l-.19.62v.2h0l.14.05h.15v.1a.14.14,0,0,1,0,.09H93.1a.14.14,0,0,1,0-.09.17.17,0,0,1,0-.1h.13a.49.49,0,0,0,.17-.06.6.6,0,0,0,.14-.21l.14-.37a1.79,1.79,0,0,1,.17-.49l.44-1.32.15-.41a.87.87,0,0,0,0-.28.46.46,0,0,0,.16-.07.69.69,0,0,0,.13-.11l.1-.1h0a.12.12,0,0,1,.11.11c0,.11,0,.17.08.28a2.06,2.06,0,0,1,.15.46l.67,2.11.07.21a.61.61,0,0,0,.07.14.24.24,0,0,0,.08.09h.3a.17.17,0,0,1,0,.1.14.14,0,0,1,0,.09H95v-.09a.09.09,0,0,1,0-.1h.27a0,0,0,0,0,0-.05.29.29,0,0,0,0-.13l-.07-.24-.2-.44a.27.27,0,0,0-.07-.08h-.72Zm.53-.29a.21.21,0,0,0,.11,0v-.13l-.13-.44a1.15,1.15,0,0,0-.1-.33l-.07-.24a1.07,1.07,0,0,1-.1.25c0,.1-.07.22-.11.35l-.12.4a.17.17,0,0,0,0,.14h.52Z"/><path d="M100.13,31v.87A.2.2,0,0,1,100,32a.49.49,0,0,1-.17,0l-.12-.17-.12-.19-.17-.23L98.3,29.85l-.3-.46a2.11,2.11,0,0,0-.19-.23.24.24,0,0,0,0,.12v1.59a1.41,1.41,0,0,0,0,.29.89.89,0,0,0,0,.23v.15a.23.23,0,0,0,.12.12l.17.05h.14a.17.17,0,0,1,0,.1.14.14,0,0,1,0,.09H97a.14.14,0,0,1,0-.09.17.17,0,0,1,0-.1h.09l.16-.06a.22.22,0,0,0,.11-.12v-.15a.89.89,0,0,0,0-.23,1.41,1.41,0,0,0,0-.29V29a.29.29,0,0,0,0-.13.11.11,0,0,0,0-.08.09.09,0,0,0,0-.07.17.17,0,0,0-.09-.11.44.44,0,0,0-.19-.07h-.14v-.19H98a1.77,1.77,0,0,0,.26.49l.56.74.42.53.28.36a1.59,1.59,0,0,0,.2.24.21.21,0,0,0,0-.11V29.1a.89.89,0,0,0,0-.23.43.43,0,0,0,0-.16.25.25,0,0,0-.11-.12l-.18-.05h-.13a.17.17,0,0,1,0-.1.14.14,0,0,1,0-.09h1.22a.14.14,0,0,1,0,.09.17.17,0,0,1,0,.1h-.09l-.17.05a.4.4,0,0,0-.1.12v.16a.89.89,0,0,0,0,.23V31Z"/><path d="M104.13,28.52a.21.21,0,0,1,0-.11v-.08h1.12a1,1,0,0,0,0,.25,2.76,2.76,0,0,0,.08.27.78.78,0,0,0,.13.3,2.17,2.17,0,0,0,.15.35l.33.76v.12a1,1,0,0,1,.07.15l.08.16.06.12a1,1,0,0,0,.12-.23c0-.1.1-.22.16-.38l.26-.6.16-.37.12-.3.09-.29a2.81,2.81,0,0,0,.08-.31h1.1a.14.14,0,0,1,0,.09.17.17,0,0,1,0,.1h-.15a.44.44,0,0,0-.22.1.4.4,0,0,0-.08.28v2.38a1.31,1.31,0,0,0,0,.28.21.21,0,0,0,.19.12h.15a.11.11,0,0,1,0,.11.11.11,0,0,1,0,.08h-1.42a.14.14,0,0,1,0-.09.09.09,0,0,1,0-.1h.15a.29.29,0,0,0,.13,0l.07-.06a.24.24,0,0,0,0-.12V29.27h0c-.19.43-.37.87-.56,1.32s-.37.89-.53,1.35h0a2.16,2.16,0,0,0-.21-.6l-.29-.73-.31-.73-.25-.62h0v2a.49.49,0,0,0,0,.17.21.21,0,0,0,0,.11.13.13,0,0,0,.07.06h.31a.17.17,0,0,1,0,.1v.09h-1.14v-.12h.24a.16.16,0,0,0,.08-.06.24.24,0,0,0,0-.12.67.67,0,0,0,0-.2V29a.48.48,0,0,0-.08-.31.46.46,0,0,0-.23-.12Z"/><path d="M110.38,29.75a.33.33,0,0,0,0,.14h.72a.18.18,0,0,0,.06-.09v-.29h.11v1.15h-.11v-.29a.18.18,0,0,0-.06-.09h-.6a.24.24,0,0,0-.12,0,.33.33,0,0,0,0,.14V31a1.61,1.61,0,0,0,0,.31.47.47,0,0,0,.06.2l.06.06.09.05h.65a.57.57,0,0,0,.22-.07,1.07,1.07,0,0,0,.18-.19,3.13,3.13,0,0,0,.19-.36.09.09,0,0,1,.1,0s.08,0,.09.06a1.91,1.91,0,0,1,0,.24l-.06.24-.06.23a.47.47,0,0,1-.06.15h-2.65a.14.14,0,0,1,0-.09.17.17,0,0,1,0-.1h.37a.18.18,0,0,0,.08-.07.49.49,0,0,0,0-.17,1.41,1.41,0,0,0,0-.29v-2a1.41,1.41,0,0,0,0-.29.49.49,0,0,0,0-.17.3.3,0,0,0-.08-.08h-.26a.17.17,0,0,1,0-.1.14.14,0,0,1,0-.09h2.43v.84a.11.11,0,0,1-.08,0,.17.17,0,0,1-.1,0,.73.73,0,0,0-.09-.26,1,1,0,0,0-.1-.17.62.62,0,0,0-.19-.12,1,1,0,0,0-.3-.05h-.49a.09.09,0,0,0,0,.07v1Z"/><path d="M113.25,29.22a1.61,1.61,0,0,0,0-.31.61.61,0,0,0,0-.19.14.14,0,0,0-.07-.1.29.29,0,0,0-.13,0H113V28.5h1.33a3,3,0,0,1,.6,0,2.12,2.12,0,0,1,.55.14,1.45,1.45,0,0,1,.43.26,1.55,1.55,0,0,1,.51.81,1.61,1.61,0,0,1,.07.49,2,2,0,0,1-.23,1,1.59,1.59,0,0,1-.66.65A1.55,1.55,0,0,1,115,32a4,4,0,0,1-.69.06h-1.44a.14.14,0,0,1,0-.09.17.17,0,0,1,0-.1h.29a.1.1,0,0,0,.07-.08.49.49,0,0,0,0-.17,1.41,1.41,0,0,0,0-.29Zm.71,1.71v.37a.42.42,0,0,0,.09.24.34.34,0,0,0,.17.11.49.49,0,0,0,.24,0,.93.93,0,0,0,.54-.14,1.06,1.06,0,0,0,.36-.37,1.78,1.78,0,0,0,.19-.5,2.57,2.57,0,0,0,.06-.55,1.67,1.67,0,0,0-.35-1.14,1.27,1.27,0,0,0-1-.41c-.14,0-.22,0-.26.07v2.28Z"/><path d="M118.53,31.12a1.5,1.5,0,0,0,0,.3.49.49,0,0,0,0,.17.16.16,0,0,0,.08.08h.28v.1a.14.14,0,0,1,0,.09h-1.5a.14.14,0,0,1,0-.09.17.17,0,0,1,0-.1h.28a.16.16,0,0,0,.08-.08.49.49,0,0,0,0-.17,1.5,1.5,0,0,0,0-.3v-2a1.5,1.5,0,0,0,0-.3.49.49,0,0,0,0-.17.3.3,0,0,0-.08-.08h-.28a.14.14,0,0,1,0-.09.17.17,0,0,1,0-.1h1.51a.17.17,0,0,1,0,.1.14.14,0,0,1,0,.09h-.28l-.08.08a.49.49,0,0,0,0,.17,1.5,1.5,0,0,0,0,.3Z"/><path d="M121.9,28.26h1v.84h-.06a1.08,1.08,0,0,0-.34-.57.83.83,0,0,0-.59-.2.87.87,0,0,0-.42.1,1.12,1.12,0,0,0-.36.29,1.29,1.29,0,0,0-.26.49,2.09,2.09,0,0,0-.11.7,2.5,2.5,0,0,0,.1.72,2,2,0,0,0,.26.51,1.26,1.26,0,0,0,.37.32,1,1,0,0,0,.44.11,1,1,0,0,0,.39-.08,1,1,0,0,0,.29-.2,1.1,1.1,0,0,0,.2-.28,1,1,0,0,0,.13-.28.09.09,0,0,1,.1,0,.1.1,0,0,1,.09.06,3.08,3.08,0,0,1-.08.53,1.15,1.15,0,0,1-.11.31l-.46.13a2,2,0,0,1-.55.07,2.82,2.82,0,0,1-.71-.09,1.6,1.6,0,0,1-.62-.32,1.64,1.64,0,0,1-.45-.56A1.78,1.78,0,0,1,120,30a1.93,1.93,0,0,1,.17-.85,1.76,1.76,0,0,1,.43-.58,1.88,1.88,0,0,1,.63-.36A2.16,2.16,0,0,1,121.9,28.26Z"/><path d="M125.06,31.12a1.5,1.5,0,0,0,0,.3.49.49,0,0,0,0,.17.16.16,0,0,0,.08.08h.28a.17.17,0,0,1,0,.1.14.14,0,0,1,0,.09H124a.14.14,0,0,1,0-.09.17.17,0,0,1,0-.1h.28s.06,0,.08-.08a.49.49,0,0,0,0-.17,1.5,1.5,0,0,0,0-.3v-2a1.5,1.5,0,0,0,0-.3.49.49,0,0,0,0-.17.3.3,0,0,0-.08-.08H124a.14.14,0,0,1,0-.09.17.17,0,0,1,0-.1h1.51a.17.17,0,0,1,0,.1.14.14,0,0,1,0,.09h-.28l-.08.08a.49.49,0,0,0,0,.17,1.5,1.5,0,0,0,0,.3Z"/><path d="M129.5,31v.87a.2.2,0,0,1-.12.08.49.49,0,0,1-.17,0l-.12-.17-.13-.19a1.88,1.88,0,0,0-.16-.23l-1.14-1.54-.35-.46a2.11,2.11,0,0,0-.19-.23.24.24,0,0,0,0,.12v1.59a1.41,1.41,0,0,0,0,.29.89.89,0,0,0,0,.23.38.38,0,0,0,0,.15.22.22,0,0,0,.11.12l.17.05h.14a.17.17,0,0,1,0,.1.14.14,0,0,1,0,.09h-1.22a.14.14,0,0,1,0-.09.17.17,0,0,1,0-.1h.09l.16-.06a.22.22,0,0,0,.11-.12v-.15a.89.89,0,0,0,0-.23,1.41,1.41,0,0,0,0-.29V29a.29.29,0,0,0,0-.13.11.11,0,0,0,0-.08.09.09,0,0,0,0-.07.21.21,0,0,0-.08-.11.68.68,0,0,0-.2-.07h-.14a.21.21,0,0,1,0-.11.11.11,0,0,1,0-.08h1.1a1.77,1.77,0,0,0,.26.49l.56.74.42.53.28.36a1.59,1.59,0,0,0,.2.24.21.21,0,0,0,0-.11V28.71a.25.25,0,0,0-.11-.12l-.18-.05h-.13a.17.17,0,0,1,0-.1.14.14,0,0,1,0-.09h1.22a.14.14,0,0,1,0,.09.17.17,0,0,1,0,.1h-.09l-.16.05a.32.32,0,0,0-.11.12v.16a.89.89,0,0,0,0,.23V31Z"/><path d="M131.89,29.75v.14h.72l.06-.09a1,1,0,0,0,.05-.16v-.13h.11v1.15h-.06v-.13a1,1,0,0,0-.05-.16l-.06-.09H132a.24.24,0,0,0-.12,0V31a1.61,1.61,0,0,0,0,.31.68.68,0,0,0,.07.2l.05.06.1.05h.65a.52.52,0,0,0,.21-.07.86.86,0,0,0,.19-.19,3.13,3.13,0,0,0,.19-.36h.1c.1,0,.08,0,.08.06a1,1,0,0,1,0,.24v.24l-.06.23-.06.15h-2.65a.14.14,0,0,1,0-.09.17.17,0,0,1,0-.1h.37a.12.12,0,0,0,.07-.07.49.49,0,0,0,0-.17V28.91a.49.49,0,0,0,0-.17.18.18,0,0,0-.07-.08h-.26a.17.17,0,0,1,0-.1.14.14,0,0,1,0-.09h2.43v.84a.11.11,0,0,1-.08,0,.21.21,0,0,1-.11,0,1.14,1.14,0,0,0-.09-.26.59.59,0,0,0-.1-.17.36.36,0,0,0-.18-.12,1,1,0,0,0-.3-.05H132a0,0,0,0,0-.05,0,.09.09,0,0,0,0,.07v1.06Z"/><path d="M138.39,30.2h-.17v1.21a.43.43,0,0,0,0,.16.18.18,0,0,0,.08.09h.29a.17.17,0,0,1,0,.1.14.14,0,0,1,0,.09H137.1a.14.14,0,0,1,0-.09.17.17,0,0,1,0-.1h.25a.24.24,0,0,0,.08-.09V28.65a.16.16,0,0,0-.08-.08h-.25a.14.14,0,0,1,0-.09.17.17,0,0,1,0-.1h1.42a.17.17,0,0,1,0,.1.14.14,0,0,1,0,.09h-.1a.29.29,0,0,0-.13,0s0,0-.07.08a.49.49,0,0,0,0,.17v1.05h1.39a0,0,0,0,0,0-.05v-1a.49.49,0,0,0,0-.17.1.1,0,0,0-.07-.08h-.27a.14.14,0,0,1,0-.09.17.17,0,0,1,0-.1h1.45a.17.17,0,0,1,0,.1.14.14,0,0,1,0,.09h-.23s-.06,0-.08.08a.49.49,0,0,0,0,.17v2.6a.43.43,0,0,0,0,.16.18.18,0,0,0,.08.09h.25a.17.17,0,0,1,0,.1.14.14,0,0,1,0,.09h-1.45a.14.14,0,0,1,0-.09.17.17,0,0,1,0-.1h.25a.16.16,0,0,0,.07-.09.43.43,0,0,0,0-.16V30.25a0,0,0,0,0,0-.05h-1.22Z"/><path d="M143.52,28.26a1.85,1.85,0,0,1,.7.13,1.67,1.67,0,0,1,.56.39,1.51,1.51,0,0,1,.35.58,1.91,1.91,0,0,1,.13.75,2.12,2.12,0,0,1-.13.79,1.71,1.71,0,0,1-.36.59,1.65,1.65,0,0,1-.57.37,2,2,0,0,1-1.42,0,1.46,1.46,0,0,1-.55-.36,1.94,1.94,0,0,1-.36-.58,2.53,2.53,0,0,1-.12-.77,2.1,2.1,0,0,1,.13-.74,1.75,1.75,0,0,1,.36-.6,1.69,1.69,0,0,1,.56-.4A1.79,1.79,0,0,1,143.52,28.26Zm.95,1.92a3.5,3.5,0,0,0-.07-.65,2,2,0,0,0-.2-.53,1.19,1.19,0,0,0-.31-.36.67.67,0,0,0-.41-.13.84.84,0,0,0-.41.11.86.86,0,0,0-.29.31,2,2,0,0,0-.18.48,3.18,3.18,0,0,0-.06.62v.35a2.63,2.63,0,0,0,.06.39,2.32,2.32,0,0,0,.13.37,1.23,1.23,0,0,0,.19.31.75.75,0,0,0,.26.21.74.74,0,0,0,.36.09.7.7,0,0,0,.42-.13,1,1,0,0,0,.28-.33,2.16,2.16,0,0,0,.16-.49A4.2,4.2,0,0,0,144.47,30.18Z"/><path d="M148.46,30.9a1.17,1.17,0,0,1-.09.45.94.94,0,0,1-.25.34,1.23,1.23,0,0,1-.4.23,1.79,1.79,0,0,1-.51.07,1.7,1.7,0,0,1-.55-.07l-.29-.13a.27.27,0,0,1-.07-.14.36.36,0,0,0-.05-.21v-.25a1.31,1.31,0,0,1,0-.28.11.11,0,0,1,.09-.05h.1a1.36,1.36,0,0,0,.11.28,1.31,1.31,0,0,0,.19.27,1.27,1.27,0,0,0,.25.21.53.53,0,0,0,.3.09.69.69,0,0,0,.24-.05.48.48,0,0,0,.16-.12.4.4,0,0,0,.1-.18.34.34,0,0,0,0-.2.59.59,0,0,0-.07-.29,1,1,0,0,0-.16-.24l-.22-.19-.23-.14a1.24,1.24,0,0,1-.27-.17,1.21,1.21,0,0,1-.41-.52.89.89,0,0,1-.07-.36,1.2,1.2,0,0,1,.08-.42.9.9,0,0,1,.23-.32,1.31,1.31,0,0,1,.36-.21,1.56,1.56,0,0,1,.48-.08h.27a1.09,1.09,0,0,1,.3.07h.17a1.5,1.5,0,0,1,.06.29,3.84,3.84,0,0,1,0,.48.15.15,0,0,1-.09.06.11.11,0,0,1-.11,0,1.22,1.22,0,0,0-.22-.44,1.54,1.54,0,0,0-.19-.17.53.53,0,0,0-.62.09.52.52,0,0,0-.08.4.56.56,0,0,0,.13.35,2.08,2.08,0,0,0,.32.27l.33.18.22.2a2.5,2.5,0,0,1,.23.23,1.08,1.08,0,0,1,.16.3A.94.94,0,0,1,148.46,30.9Z"/><path d="M149.81,29.22v-.33a.54.54,0,0,0,0-.18.11.11,0,0,0-.06-.09h-.28v-.09a.14.14,0,0,1,0-.09h1.14a2.35,2.35,0,0,1,.53,0,1.64,1.64,0,0,1,.38.1,1,1,0,0,1,.22.13.9.9,0,0,1,.2.19.84.84,0,0,1,.13.27,1,1,0,0,1,.06.34,1,1,0,0,1-.07.39.92.92,0,0,1-.16.27,1,1,0,0,1-.22.18l-.24.11h-.56v-.07a.09.09,0,0,1,0-.07.77.77,0,0,0,.25-.14.9.9,0,0,0,.15-.19,1,1,0,0,0,.08-.25,1.31,1.31,0,0,0,0-.28,1.5,1.5,0,0,0,0-.3.66.66,0,0,0-.12-.27.58.58,0,0,0-.19-.19.59.59,0,0,0-.29-.07c-.09,0-.15,0-.17.06a.74.74,0,0,0,0,.21v2.58a.43.43,0,0,0,0,.16.22.22,0,0,0,.07.09h.3a.12.12,0,0,1,0,.17h-1.52a.14.14,0,0,1,0-.09v-.09h.28a.16.16,0,0,0,.07-.09.43.43,0,0,0,0-.16V29.22Z"/><path d="M154.11,31.12v.3a.49.49,0,0,0,0,.17.08.08,0,0,0,.08.08h.27a.17.17,0,0,1,0,.1.14.14,0,0,1,0,.09H153a.14.14,0,0,1,0-.09.17.17,0,0,1,0-.1h.27a.11.11,0,0,0,.08-.08.49.49,0,0,0,0-.17v-2.6a.49.49,0,0,0,0-.17.16.16,0,0,0-.08-.08H153a.14.14,0,0,1,0-.09.17.17,0,0,1,0-.1h1.5a.17.17,0,0,1,0,.1.14.14,0,0,1,0,.09h-.27a.3.3,0,0,0-.08.08.49.49,0,0,0,0,.17v2.29Z"/><path d="M156.57,28.75a.29.29,0,0,0,0-.13h-.42a.54.54,0,0,0-.22.05.36.36,0,0,0-.16.11.76.76,0,0,0-.12.19.81.81,0,0,1-.11.26h-.1a.1.1,0,0,1-.08-.07,3.06,3.06,0,0,0,.1-.51.81.81,0,0,1,.06-.4.09.09,0,0,1,.07,0h.07v.06a.06.06,0,0,0,.06,0,.24.24,0,0,0,.12,0h2.47v-.07h.11a.54.54,0,0,0,0,.18v.75h-.18l-.06-.24a1.14,1.14,0,0,0-.1-.19.41.41,0,0,0-.14-.12.46.46,0,0,0-.23-.05h-.29a.24.24,0,0,0-.12,0,.29.29,0,0,0,0,.13v2.68a.43.43,0,0,0,0,.16.16.16,0,0,0,.08.08h.33a.17.17,0,0,1,0,.1.14.14,0,0,1,0,.09H156.1a.14.14,0,0,1,0-.09.17.17,0,0,1,0-.1h.35s.06,0,.08-.08a.43.43,0,0,0,0-.16,1.5,1.5,0,0,0,0-.3Z"/><path d="M159.81,30.69h-.11a.17.17,0,0,0,0,.1l-.19.62v.2h0l.14.05h.15v.19h-1.09v-.09a.17.17,0,0,1,0-.1h.14a.44.44,0,0,0,.16-.06.6.6,0,0,0,.14-.21l.14-.37a1.79,1.79,0,0,1,.17-.49l.44-1.32.15-.41a.87.87,0,0,0,0-.28.46.46,0,0,0,.16-.07l.14-.11.09-.1h0a.11.11,0,0,1,.11.11l.08.28a2,2,0,0,0,.15.46l.67,2.11.07.21a.61.61,0,0,0,.07.14.24.24,0,0,0,.08.09h.3a.17.17,0,0,1,0,.1.14.14,0,0,1,0,.09h-1.44a.14.14,0,0,1,0-.09.17.17,0,0,1,0-.1h.27v-.18l-.07-.24-.13-.47a.27.27,0,0,0-.07-.08h-.73Zm.53-.29a.21.21,0,0,0,.11,0v-.13l-.13-.44c0-.11-.06-.22-.1-.33a1.13,1.13,0,0,0-.08-.24.33.33,0,0,1-.09.25c-.09.1-.07.22-.11.35l-.12.4a.17.17,0,0,0,0,.14h.52Z"/><path d="M163.77,31a1.71,1.71,0,0,0,0,.32.33.33,0,0,0,.06.19l.06.06.09.05h.66a.38.38,0,0,0,.21-.07.81.81,0,0,0,.18-.19,2.08,2.08,0,0,0,.2-.36h.1s.08,0,.09.06v.23l-.06.26-.06.22c0,.07,0,.13-.06.16h-2.6a.14.14,0,0,1,0-.09.17.17,0,0,1,0-.1H163a.16.16,0,0,0,.08-.08.43.43,0,0,0,0-.16,1.5,1.5,0,0,0,0-.3v-2a1.41,1.41,0,0,0,0-.29.49.49,0,0,0,0-.17.16.16,0,0,0-.08-.08.29.29,0,0,0-.13,0h-.15a.09.09,0,0,1,0-.1.14.14,0,0,1,0-.09h1.48a.17.17,0,0,1,0,.1.14.14,0,0,1,0,.09H164a.29.29,0,0,0-.13,0,.16.16,0,0,0-.08.08.49.49,0,0,0,0,.17,1.41,1.41,0,0,0,0,.29Z"/></g></g></g></g></svg>