<svg xmlns="http://www.w3.org/2000/svg" viewBox="0 0 34.3 33.97"><defs><style>.cls-1{fill:#fff;}</style></defs><g id="레이어_2" data-name="레이어 2"><g id="Layer_1" data-name="Layer 1"><path class="cls-1" d="M17.13,29.29l-.55.43a42,42,0,0,1-5.42,3.54,16.18,16.18,0,0,0,2.43.7c1.21-.73,2.39-1.52,3.54-2.38A41.73,41.73,0,0,0,20.69,34a17.85,17.85,0,0,0,2.43-.7,41.14,41.14,0,0,1-5.43-3.55Z"/><path class="cls-1" d="M17.13,22.37l-.64.65A35.37,35.37,0,0,1,6.09,30.3a15.28,15.28,0,0,0,1.65,1.22,36.94,36.94,0,0,0,9.39-6.58,37.17,37.17,0,0,0,9.42,6.6,19.62,19.62,0,0,0,1.65-1.23A35,35,0,0,1,17.78,23Z"/><path class="cls-1" d="M21.29,9.5A31.05,31.05,0,0,0,23,3,19.85,19.85,0,0,0,34.3,16.41a18.39,18.39,0,0,0-.22-2.11,18,18,0,0,1-9.5-12.61c-.44-.22-.9-.41-1.37-.59l-.6-.21-.29-.1C22,.7,21.73.61,21.43.54a29.6,29.6,0,0,1-1.25,6.61c-.26.83-.56,1.65-.89,2.45a29.58,29.58,0,0,1-2.17,4.23c-.35.57-.72,1.12-1.1,1.66A29.76,29.76,0,0,1,2.4,26c.16.27.33.54.5.79s.36.52.54.76A31.55,31.55,0,0,0,17.12,17.05,31.53,31.53,0,0,0,30.88,27.48c.37-.5.72-1,1-1.55a29.77,29.77,0,0,1-13.7-10.45A30.65,30.65,0,0,0,20.4,11.6,25.78,25.78,0,0,0,33.53,22.32,17.16,17.16,0,0,0,34,20.54,23.85,23.85,0,0,1,21.29,9.5Z"/><path class="cls-1" d="M13.83,11.61c.4-.65.77-1.32,1.1-2A25.45,25.45,0,0,0,17.1,3.08,23.78,23.78,0,0,0,17.48,0h-.77c-.35,0-.71,0-1.06.06A23.34,23.34,0,0,1,14,7.16a23,23,0,0,1-1.1,2.36A23.93,23.93,0,0,1,.32,20.58a17.68,17.68,0,0,0,.46,1.77A25.73,25.73,0,0,0,13.83,11.61Z"/><path class="cls-1" d="M11.21,3c.15-.67.28-1.35.37-2-.2.06-.4.14-.59.21q-.7.27-1.38.6A18,18,0,0,1,.22,14.32,16.37,16.37,0,0,0,0,16.44,19.87,19.87,0,0,0,11.21,3Z"/></g></g></svg>