<?xml version="1.0" encoding="utf-8"?>
<!-- Generator: Adobe Illustrator 21.0.0, SVG Export Plug-In . SVG Version: 6.00 Build 0)  -->
<svg version="1.1" id="레이어_1" xmlns="http://www.w3.org/2000/svg" xmlns:xlink="http://www.w3.org/1999/xlink" x="0px"
	 y="0px" viewBox="0 0 39 26.5" style="enable-background:new 0 0 39 26.5;" xml:space="preserve">
<style type="text/css">
	.st0{clip-path:url(#SVGID_2_);fill:#C5C5C5;}
</style>
<g>
	<g>
		<defs>
			<rect id="SVGID_1_" y="-5.3" width="39" height="36.1"/>
		</defs>
		<clipPath id="SVGID_2_">
			<use xlink:href="#SVGID_1_"  style="overflow:visible;"/>
		</clipPath>
		<path class="st0" d="M38,13.4c0,0,0,6.1-0.8,9c-0.4,1.6-1.7,2.8-3.3,3.2c-2.9,0.8-14.5,0.8-14.5,0.8s-11.6,0-14.5-0.8
			c-1.6-0.4-2.8-1.6-3.3-3.2c-0.8-2.9-0.8-9-0.8-9s0-6.1,0.8-9C2,2.8,3.3,1.5,4.9,1.1c2.9-0.8,14.5-0.8,14.5-0.8s11.6,0,14.5,0.8
			c1.6,0.4,2.8,1.7,3.3,3.3C38,7.4,38,13.4,38,13.4z M25.4,13.4l-9.7-5.5v11L25.4,13.4z"/>
	</g>
</g>
</svg>
